<svg width="63" height="63" viewBox="0 0 63 63" fill="none" xmlns="http://www.w3.org/2000/svg">
<path d="M52.5175 21.4422V46.7809C52.5175 54.5775 47.8656 57.1763 42.1221 57.1763H21.3314C15.588 57.1763 10.936 54.5775 10.936 46.7809V21.4422C10.936 12.996 15.588 11.0469 21.3314 11.0469C21.3314 12.6582 21.981 14.1135 23.0466 15.179C24.1121 16.2445 25.5675 16.8943 27.1788 16.8943H36.2747C39.4973 16.8943 42.1221 14.2694 42.1221 11.0469C47.8656 11.0469 52.5175 12.996 52.5175 21.4422Z" stroke="#292D32" stroke-width="3.89826" stroke-linecap="round" stroke-linejoin="round"/>
<path d="M42.1228 11.0458C42.1228 14.2683 39.4979 16.8931 36.2754 16.8931H27.1794C25.5681 16.8931 24.1127 16.2434 23.0472 15.1779C21.9817 14.1124 21.332 12.657 21.332 11.0458C21.332 7.82319 23.9569 5.19836 27.1794 5.19836H36.2754C37.8866 5.19836 39.3421 5.84808 40.4076 6.91361C41.4731 7.97913 42.1228 9.43447 42.1228 11.0458Z" stroke="#292D32" stroke-width="3.89826" stroke-linecap="round" stroke-linejoin="round"/>
<path d="M21.332 33.7832H31.7274" stroke="#292D32" stroke-width="3.89826" stroke-linecap="round" stroke-linejoin="round"/>
<path d="M21.332 44.1816H42.1228" stroke="#292D32" stroke-width="3.89826" stroke-linecap="round" stroke-linejoin="round"/>
</svg>
