<svg width="64" height="63" viewBox="0 0 64 63" fill="none" xmlns="http://www.w3.org/2000/svg">
<path d="M47.197 5.4562L21.3905 11.9273C17.6222 12.8629 13.8019 16.6832 12.8663 20.4515L6.3952 46.258C4.44607 54.0545 9.22794 58.8624 17.0505 56.9133L42.8569 50.4681C46.5993 49.5325 50.4456 45.6863 51.3811 41.9439L57.8523 16.1114C59.8014 8.31492 54.9935 3.50707 47.197 5.4562Z" stroke="#292D32" stroke-width="3.89826" stroke-linecap="round" stroke-linejoin="round"/>
<path d="M32.1237 40.2827C37.1472 40.2827 41.2196 36.2103 41.2196 31.1868C41.2196 26.1632 37.1472 22.0908 32.1237 22.0908C27.1001 22.0908 23.0277 26.1632 23.0277 31.1868C23.0277 36.2103 27.1001 40.2827 32.1237 40.2827Z" stroke="#292D32" stroke-width="3.89826" stroke-linecap="round" stroke-linejoin="round"/>
</svg>
