<svg width="64" height="63" viewBox="0 0 64 63" fill="none" xmlns="http://www.w3.org/2000/svg">
<path d="M24.083 33.786C22.3677 34.6436 20.9384 35.9171 19.8729 37.5024C19.2751 38.4119 19.2751 39.5554 19.8729 40.465C20.9384 42.0503 22.3677 43.3238 24.083 44.1814" stroke="#292D32" stroke-width="3.89826" stroke-linecap="round" stroke-linejoin="round"/>
<path d="M40.2217 33.786C41.9369 34.6436 43.3663 35.9171 44.4318 37.5024C45.0295 38.4119 45.0295 39.5554 44.4318 40.465C43.3663 42.0503 41.9369 43.3238 40.2217 44.1814" stroke="#292D32" stroke-width="3.89826" stroke-linecap="round" stroke-linejoin="round"/>
<path d="M24.083 57.174H39.676C52.6702 57.174 57.8679 51.9763 57.8679 38.9821V23.389C57.8679 10.3948 52.6702 5.19714 39.676 5.19714H24.083C11.0888 5.19714 5.89111 10.3948 5.89111 23.389V38.9821C5.89111 51.9763 11.0888 57.174 24.083 57.174Z" stroke="#292D32" stroke-width="3.89826" stroke-linecap="round" stroke-linejoin="round"/>
<path d="M6.48877 20.816L56.4385 20.79" stroke="#292D32" stroke-width="3.89826" stroke-linecap="round" stroke-linejoin="round"/>
</svg>
