<svg width="21" height="20" viewBox="0 0 21 20" fill="none" xmlns="http://www.w3.org/2000/svg">
<path d="M1.17088 10.4768C0.704929 10.3297 0.704927 9.67031 1.17088 9.5232L7.07559 7.65893C7.52966 7.51557 7.88869 7.16513 8.04301 6.71467L10.027 0.923482C10.1814 0.472875 10.8186 0.472881 10.973 0.92348L12.957 6.71467C13.1113 7.16513 13.4703 7.51557 13.9244 7.65893L19.8291 9.5232C20.2951 9.67031 20.2951 10.3297 19.8291 10.4768L13.9244 12.3411C13.4703 12.4844 13.1113 12.8349 12.957 13.2853L10.973 19.0765C10.8186 19.5271 10.1814 19.5271 10.027 19.0765L8.04302 13.2853C7.88869 12.8349 7.52966 12.4844 7.07559 12.3411L1.17088 10.4768Z" fill="#00B894" stroke="#101C34"/>
</svg>
