<svg width="36" height="35" viewBox="0 0 36 35" fill="none" xmlns="http://www.w3.org/2000/svg">
<path d="M1.12231 17.9761C0.659206 17.8276 0.659203 17.1724 1.12231 17.0239L12.7221 13.3043C13.1757 13.1589 13.5332 12.8067 13.6854 12.3554L17.5262 0.968894C17.6792 0.515315 18.3208 0.515311 18.4738 0.968898L22.3146 12.3554C22.4668 12.8067 22.8243 13.1589 23.2779 13.3043L34.8777 17.0239C35.3408 17.1724 35.3408 17.8276 34.8777 17.9761L23.2779 21.6957C22.8243 21.8411 22.4668 22.1933 22.3146 22.6446L18.4738 34.0311C18.3208 34.4847 17.6792 34.4847 17.5262 34.0311L13.6854 22.6446C13.5332 22.1933 13.1757 21.8411 12.7221 21.6957L1.12231 17.9761Z" fill="#00B894" stroke="#101C34"/>
</svg>
