<svg width="55" height="55" viewBox="0 0 55 55" fill="none" xmlns="http://www.w3.org/2000/svg">
<path d="M37.0446 10.975C36.5862 10.8242 36.5862 10.1758 37.0446 10.025L41.5778 8.53413C42.0304 8.38531 42.3853 8.03037 42.5341 7.57785L44.025 3.04462C44.1758 2.58623 44.8242 2.58623 44.975 3.04462L46.4659 7.57785C46.6147 8.03037 46.9696 8.3853 47.4222 8.53413L51.9554 10.025C52.4138 10.1758 52.4138 10.8242 51.9554 10.975L47.4222 12.4659C46.9696 12.6147 46.6147 12.9696 46.4659 13.4222L44.975 17.9554C44.8242 18.4138 44.1758 18.4138 44.025 17.9554L42.5341 13.4222C42.3853 12.9696 42.0304 12.6147 41.5778 12.4659L37.0446 10.975Z" fill="#00B894" stroke="#101C34"/>
<path d="M3.04462 39.975C2.58623 39.8242 2.58623 39.1758 3.04462 39.025L11.3404 36.2967C11.7929 36.1479 12.1479 35.7929 12.2967 35.3404L15.025 27.0446C15.1758 26.5862 15.8242 26.5862 15.975 27.0446L18.7033 35.3404C18.8521 35.7929 19.2071 36.1479 19.6596 36.2967L27.9554 39.025C28.4138 39.1758 28.4138 39.8242 27.9554 39.975L19.6596 42.7033C19.2071 42.8521 18.8521 43.2071 18.7033 43.6596L15.975 51.9554C15.8242 52.4138 15.1758 52.4138 15.025 51.9554L12.2967 43.6596C12.1479 43.2071 11.7929 42.8521 11.3404 42.7033L3.04462 39.975Z" fill="#00B894" stroke="#101C34"/>
</svg>
