<svg width="55" height="52" viewBox="0 0 55 52" fill="none" xmlns="http://www.w3.org/2000/svg">
<path d="M27.0446 36.975C26.5862 36.8242 26.5862 36.1758 27.0446 36.025L35.3404 33.2967C35.7929 33.1479 36.1479 32.7929 36.2967 32.3404L39.025 24.0446C39.1758 23.5862 39.8242 23.5862 39.975 24.0446L42.7033 32.3404C42.8521 32.7929 43.2071 33.1479 43.6596 33.2967L51.9554 36.025C52.4138 36.1758 52.4138 36.8242 51.9554 36.975L43.6596 39.7033C43.2071 39.8521 42.8521 40.2071 42.7033 40.6596L39.975 48.9554C39.8242 49.4138 39.1758 49.4138 39.025 48.9554L36.2967 40.6596C36.1479 40.2071 35.7929 39.8521 35.3404 39.7033L27.0446 36.975Z" fill="#00B894" stroke="#101C34"/>
<path d="M3.04462 10.975C2.58623 10.8242 2.58623 10.1758 3.04462 10.025L7.57784 8.53413C8.03037 8.38531 8.38531 8.03037 8.53413 7.57785L10.025 3.04462C10.1758 2.58623 10.8242 2.58623 10.975 3.04462L12.4659 7.57785C12.6147 8.03037 12.9696 8.3853 13.4222 8.53413L17.9554 10.025C18.4138 10.1758 18.4138 10.8242 17.9554 10.975L13.4222 12.4659C12.9696 12.6147 12.6147 12.9696 12.4659 13.4222L10.975 17.9554C10.8242 18.4138 10.1758 18.4138 10.025 17.9554L8.53413 13.4222C8.38531 12.9696 8.03038 12.6147 7.57785 12.4659L3.04462 10.975Z" fill="#00B894" stroke="#101C34"/>
</svg>
