<svg width="27" height="27" viewBox="0 0 27 27" fill="none" xmlns="http://www.w3.org/2000/svg">
<path d="M1.04462 13.975C0.586233 13.8242 0.58623 13.1758 1.04462 13.025L9.34041 10.2967C9.79294 10.1479 10.1479 9.79294 10.2967 9.34041L13.025 1.04462C13.1758 0.586234 13.8242 0.586232 13.975 1.04462L16.7033 9.34041C16.8521 9.79294 17.2071 10.1479 17.6596 10.2967L25.9554 13.025C26.4138 13.1758 26.4138 13.8242 25.9554 13.975L17.6596 16.7033C17.2071 16.8521 16.8521 17.2071 16.7033 17.6596L13.975 25.9554C13.8242 26.4138 13.1758 26.4138 13.025 25.9554L10.2967 17.6596C10.1479 17.2071 9.79294 16.8521 9.34041 16.7033L1.04462 13.975Z" fill="#00B894" stroke="#101C34"/>
</svg>
