<svg width="73" height="50" viewBox="0 0 73 50" fill="none" xmlns="http://www.w3.org/2000/svg">
<path d="M51.4202 11.2852C51.0587 10.9656 51.3147 10.3699 51.7954 10.4124L56.5489 10.833C57.0234 10.875 57.4897 10.689 57.8051 10.3321L60.9651 6.75609C61.2846 6.3945 61.8803 6.65058 61.8378 7.13124L61.4173 11.8848C61.3753 12.3593 61.5612 12.8255 61.9182 13.141L65.4942 16.3009C65.8558 16.6205 65.5997 17.2162 65.119 17.1737L60.3655 16.7531C59.891 16.7112 59.4247 16.8971 59.1093 17.254L55.9493 20.83C55.6298 21.1916 55.0341 20.9355 55.0766 20.4549L55.4971 15.7013C55.5391 15.2268 55.3532 14.7606 54.9962 14.4451L51.4202 11.2852Z" fill="#00B894" stroke="#101C34"/>
<path d="M8.73076 24.5002C8.36917 24.1807 8.62525 23.5849 9.10591 23.6274L17.8049 24.397C18.2794 24.439 18.7456 24.2531 19.0611 23.8961L24.8438 17.3521C25.1633 16.9905 25.759 17.2466 25.7165 17.7272L24.9469 26.4262C24.905 26.9007 25.0909 27.367 25.4478 27.6824L31.9919 33.4651C32.3535 33.7846 32.0974 34.3804 31.6167 34.3378L22.9178 33.5683C22.4432 33.5263 21.977 33.7122 21.6616 34.0692L15.8789 40.6132C15.5593 40.9748 14.9636 40.7187 15.0061 40.238L15.7757 31.5391C15.8177 31.0646 15.6318 30.5983 15.2748 30.2829L8.73076 24.5002Z" fill="#00B894" stroke="#101C34"/>
</svg>
