<svg width="37" height="38" viewBox="0 0 37 38" fill="none" xmlns="http://www.w3.org/2000/svg">
<path fill-rule="evenodd" clip-rule="evenodd" d="M10.8225 0.00023775H23.7054C26.9322 1.17557 29.8112 3.16186 32.0724 5.77274H10.8225C10.0667 5.77274 9.34178 5.46865 8.80732 4.92737C8.27286 4.3861 7.97261 3.65197 7.97261 2.88649C7.97261 2.12101 8.27286 1.38688 8.80732 0.845601C9.34178 0.304324 10.0667 0.00023775 10.8225 0.00023775ZM2.78436 0.00023775C3.34248 -0.00705381 3.89019 0.153521 4.35815 0.461636C4.82612 0.76975 5.19331 1.21155 5.41323 1.73111C5.63315 2.25068 5.69592 2.82464 5.59359 3.38035C5.49126 3.93606 5.22844 4.44853 4.83839 4.85289C4.44834 5.25724 3.9486 5.53531 3.40243 5.65189C2.85626 5.76847 2.28822 5.71831 1.77021 5.50777C1.2522 5.29723 0.807509 4.93578 0.492435 4.46916C0.177362 4.00255 0.00606797 3.45175 0.000237413 2.88649C-0.00461022 2.50859 0.0648224 2.1335 0.204493 1.78304C0.344163 1.43259 0.551279 1.11377 0.813783 0.845164C1.07629 0.576556 1.38893 0.363521 1.73351 0.218464C2.0781 0.073406 2.44773 -0.000775766 2.82089 0.00023775H2.78436Z" fill="white"/>
<path fill-rule="evenodd" clip-rule="evenodd" d="M10.8223 10.6953H35.229C36.0652 12.5267 36.6244 14.4752 36.8878 16.4752H10.8223C10.0904 16.4377 9.40081 16.1168 8.89593 15.579C8.39106 15.0411 8.10952 14.3274 8.10952 13.5853C8.10952 12.8431 8.39106 12.1294 8.89593 11.5915C9.40081 11.0537 10.0904 10.7328 10.8223 10.6953ZM2.78413 10.7323C3.34381 10.725 3.893 10.8864 4.36179 11.1962C4.83059 11.5059 5.1978 11.9499 5.41669 12.4716C5.63557 12.9933 5.69625 13.5692 5.59098 14.126C5.48571 14.6827 5.21926 15.1952 4.82555 15.5981C4.43183 16.001 3.92865 16.2762 3.38004 16.3886C2.83142 16.501 2.26219 16.4456 1.74478 16.2294C1.22736 16.0132 0.785168 15.6459 0.474466 15.1744C0.163764 14.7029 -0.00139427 14.1484 8.86675e-06 13.5816C7.61841e-06 13.2068 0.0730185 12.8357 0.214859 12.4895C0.3567 12.1433 0.564583 11.8289 0.826601 11.5642C1.08862 11.2995 1.39962 11.0898 1.7418 10.9471C2.08397 10.8043 2.4506 10.7313 2.82066 10.7323H2.78413Z" fill="white"/>
<path fill-rule="evenodd" clip-rule="evenodd" d="M10.8223 21.3948H36.9389C36.7266 23.3847 36.2191 25.3307 35.4336 27.1673H10.8223C10.0664 27.1673 9.34154 26.8632 8.80708 26.3219C8.27263 25.7806 7.97237 25.0465 7.97237 24.281C7.97237 23.5155 8.27263 22.7814 8.80708 22.2401C9.34154 21.6989 10.0664 21.3948 10.8223 21.3948ZM2.78412 21.3948C3.34224 21.3875 3.88995 21.5481 4.35792 21.8562C4.82588 22.1643 5.19307 22.6061 5.41299 23.1256C5.63291 23.6452 5.69568 24.2192 5.59335 24.7749C5.49102 25.3306 5.2282 25.8431 4.83815 26.2474C4.4481 26.6518 3.94836 26.9298 3.40219 27.0464C2.85602 27.163 2.28798 27.1128 1.76997 26.9023C1.25196 26.6918 0.807271 26.3303 0.492198 25.8637C0.177124 25.3971 0.00583056 24.8463 0 24.281C0.0077104 23.5292 0.308519 22.811 0.836869 22.2828C1.36522 21.7546 2.07828 21.4594 2.82066 21.4614L2.78412 21.3948Z" fill="white"/>
<path fill-rule="evenodd" clip-rule="evenodd" d="M10.8223 32.0891H32.4595C30.4094 34.5995 27.7996 36.5806 24.8452 37.869H10.8223C10.0904 37.8315 9.40081 37.5106 8.89593 36.9728C8.39106 36.4349 8.10952 35.7212 8.10952 34.9791C8.10952 34.2369 8.39106 33.5232 8.89593 32.9853C9.40081 32.4475 10.0904 32.1266 10.8223 32.0891ZM2.78413 32.0891C3.34193 32.0818 3.88934 32.2422 4.35714 32.55C4.82493 32.8578 5.1921 33.2992 5.41222 33.8183C5.63234 34.3375 5.69551 34.911 5.59377 35.4665C5.49202 36.022 5.22991 36.5345 4.8406 36.9391C4.45128 37.3438 3.95223 37.6224 3.40655 37.7398C2.86088 37.8572 2.29308 37.8081 1.77496 37.5987C1.25684 37.3893 0.811667 37.029 0.49573 36.5634C0.179793 36.0977 0.00728178 35.5477 9.51573e-06 34.9828C-0.000954557 34.6073 0.0713458 34.2354 0.212756 33.8884C0.354165 33.5414 0.561896 33.2261 0.82401 32.9606C1.08612 32.6952 1.39745 32.4848 1.74011 32.3416C2.08276 32.1984 2.44998 32.1251 2.82066 32.1261L2.78413 32.0891Z" fill="white"/>
</svg>
