<svg width="48" height="48" viewBox="0 0 48 48" fill="none" xmlns="http://www.w3.org/2000/svg">
<path d="M32.1219 20.8082L27.9991 34.0008H19.9991L15.8764 20.8082C14.7008 17.0463 15.4475 12.947 17.8739 9.84112L23.0535 3.21122C23.5339 2.59626 24.4643 2.59626 24.9447 3.21122L30.1243 9.84112C32.5507 12.947 33.2973 17.0463 32.1219 20.8082Z" stroke="#292D32" stroke-width="3" stroke-linecap="round" stroke-linejoin="round"/>
<path d="M20 40C20 44 24 46 24 46C24 46 28 44 28 40" stroke="#292D32" stroke-width="3" stroke-linecap="round" stroke-linejoin="round"/>
<path d="M16.9991 25C9.99911 30 13.9991 38 13.9991 38L19.9991 34" stroke="#292D32" stroke-width="3" stroke-linecap="round" stroke-linejoin="round"/>
<path d="M31.8633 25C38.8633 30 34.8633 38 34.8633 38L28.8633 34" stroke="#292D32" stroke-width="3" stroke-linecap="round" stroke-linejoin="round"/>
<path d="M24 22C21.7908 22 20 20.2092 20 18C20 15.7909 21.7908 14 24 14C26.2092 14 28 15.7909 28 18C28 20.2092 26.2092 22 24 22Z" stroke="#292D32" stroke-width="3" stroke-linecap="round" stroke-linejoin="round"/>
</svg>
