<svg width="156" height="29" viewBox="0 0 156 29" fill="none" xmlns="http://www.w3.org/2000/svg">
<path d="M39.7798 21V7.55412H44.1209C45.6832 7.55412 46.9702 7.82944 47.9818 8.38008C49.0062 8.93072 49.7618 9.71186 50.2484 10.7235C50.7478 11.7223 50.9975 12.9133 50.9975 14.2963C50.9975 15.6537 50.7478 16.8382 50.2484 17.8498C49.7618 18.8487 49.0062 19.6234 47.9818 20.174C46.9702 20.7247 45.6832 21 44.1209 21H39.7798ZM42.0848 19.0407H44.0057C45.171 19.0407 46.0866 18.8551 46.7525 18.4837C47.4312 18.0995 47.9114 17.5553 48.1931 16.851C48.4876 16.1339 48.6349 15.2823 48.6349 14.2963C48.6349 13.2974 48.4876 12.4459 48.1931 11.7416C47.9114 11.0244 47.4312 10.4738 46.7525 10.0896C46.0866 9.69266 45.171 9.49417 44.0057 9.49417H42.0848V19.0407ZM56.3984 21.2305C55.6044 21.2305 54.9449 21.096 54.4199 20.8271C53.8949 20.5582 53.5043 20.1997 53.2482 19.7515C52.9921 19.3033 52.864 18.8166 52.864 18.2916C52.864 17.6769 53.0177 17.1455 53.325 16.6973C53.6452 16.2491 54.1126 15.9034 54.7272 15.6601C55.3419 15.404 56.0974 15.2759 56.9938 15.2759H59.4333C59.4333 14.7637 59.3629 14.3411 59.222 14.0081C59.0812 13.6624 58.8635 13.4063 58.5689 13.2398C58.2744 13.0733 57.8966 12.9901 57.4356 12.9901C56.9106 12.9901 56.4624 13.1118 56.091 13.3551C55.7197 13.5856 55.4892 13.9441 55.3995 14.4307H53.133C53.2098 13.7392 53.4403 13.1502 53.8245 12.6636C54.2086 12.1641 54.7144 11.78 55.3419 11.5111C55.9822 11.2293 56.6801 11.0885 57.4356 11.0885C58.3448 11.0885 59.1196 11.2485 59.7598 11.5687C60.4001 11.876 60.8867 12.3242 61.2197 12.9133C61.5654 13.4895 61.7383 14.1874 61.7383 15.007V21H59.7791L59.5486 19.4441C59.4205 19.7002 59.254 19.9371 59.0491 20.1548C58.8571 20.3725 58.633 20.5646 58.3768 20.7311C58.1207 20.8847 57.8262 21.0064 57.4933 21.096C57.1731 21.1857 56.8082 21.2305 56.3984 21.2305ZM56.917 19.4057C57.2884 19.4057 57.6149 19.3417 57.8966 19.2136C58.1912 19.0728 58.4409 18.8807 58.6458 18.6374C58.8635 18.3813 59.0299 18.0995 59.1452 17.7922C59.2604 17.4849 59.3373 17.1583 59.3757 16.8126V16.7742H57.2435C56.7954 16.7742 56.424 16.8318 56.1295 16.947C55.8349 17.0495 55.6236 17.2031 55.4956 17.408C55.3675 17.6129 55.3035 17.8498 55.3035 18.1187C55.3035 18.3877 55.3675 18.6182 55.4956 18.8102C55.6236 19.0023 55.8093 19.1496 56.0526 19.252C56.2959 19.3545 56.5841 19.4057 56.917 19.4057ZM68.2578 21C67.6047 21 67.0348 20.8976 66.5482 20.6927C66.0744 20.4878 65.703 20.1484 65.4341 19.6746C65.1652 19.2008 65.0308 18.5605 65.0308 17.7538V13.259H63.3788V11.319H65.0308L65.2997 8.76425H67.3358V11.319H69.9673V13.259H67.3358V17.7538C67.3358 18.2404 67.4382 18.5797 67.6431 18.7718C67.8608 18.9511 68.2193 19.0407 68.7188 19.0407H69.9097V21H68.2578ZM75.3629 21.2305C74.569 21.2305 73.9095 21.096 73.3845 20.8271C72.8594 20.5582 72.4689 20.1997 72.2127 19.7515C71.9566 19.3033 71.8286 18.8166 71.8286 18.2916C71.8286 17.6769 71.9822 17.1455 72.2896 16.6973C72.6097 16.2491 73.0771 15.9034 73.6918 15.6601C74.3065 15.404 75.062 15.2759 75.9584 15.2759H78.3978C78.3978 14.7637 78.3274 14.3411 78.1866 14.0081C78.0457 13.6624 77.828 13.4063 77.5335 13.2398C77.2389 13.0733 76.8612 12.9901 76.4002 12.9901C75.8751 12.9901 75.4269 13.1118 75.0556 13.3551C74.6842 13.5856 74.4537 13.9441 74.3641 14.4307H72.0975C72.1743 13.7392 72.4048 13.1502 72.789 12.6636C73.1732 12.1641 73.679 11.78 74.3065 11.5111C74.9467 11.2293 75.6446 11.0885 76.4002 11.0885C77.3094 11.0885 78.0841 11.2485 78.7244 11.5687C79.3647 11.876 79.8513 12.3242 80.1842 12.9133C80.53 13.4895 80.7029 14.1874 80.7029 15.007V21H78.7436L78.5131 19.4441C78.385 19.7002 78.2186 19.9371 78.0137 20.1548C77.8216 20.3725 77.5975 20.5646 77.3414 20.7311C77.0853 20.8847 76.7907 21.0064 76.4578 21.096C76.1377 21.1857 75.7727 21.2305 75.3629 21.2305ZM75.8815 19.4057C76.2529 19.4057 76.5795 19.3417 76.8612 19.2136C77.1557 19.0728 77.4054 18.8807 77.6103 18.6374C77.828 18.3813 77.9945 18.0995 78.1097 17.7922C78.225 17.4849 78.3018 17.1583 78.3402 16.8126V16.7742H76.2081C75.7599 16.7742 75.3885 16.8318 75.094 16.947C74.7995 17.0495 74.5882 17.2031 74.4601 17.408C74.3321 17.6129 74.268 17.8498 74.268 18.1187C74.268 18.3877 74.3321 18.6182 74.4601 18.8102C74.5882 19.0023 74.7739 19.1496 75.0172 19.252C75.2605 19.3545 75.5486 19.4057 75.8815 19.4057ZM87.9321 21V7.55412H92.7726C93.8483 7.55412 94.7383 7.7398 95.4426 8.11116C96.1469 8.46972 96.6719 8.95633 97.0177 9.571C97.3634 10.1857 97.5363 10.89 97.5363 11.6839C97.5363 12.4267 97.3698 13.1118 97.0369 13.7392C96.704 14.3539 96.1853 14.8533 95.481 15.2375C94.7767 15.6088 93.8739 15.7945 92.7726 15.7945H90.2371V21H87.9321ZM90.2371 13.9121H92.6382C93.5474 13.9121 94.2005 13.7136 94.5974 13.3166C94.9944 12.9069 95.1929 12.3626 95.1929 11.6839C95.1929 10.9796 94.9944 10.429 94.5974 10.032C94.2005 9.63503 93.5474 9.43654 92.6382 9.43654H90.2371V13.9121ZM99.4479 21V11.319H101.503L101.714 13.1246C101.945 12.702 102.233 12.3434 102.579 12.0489C102.925 11.7416 103.328 11.5046 103.789 11.3382C104.263 11.1717 104.781 11.0885 105.345 11.0885V13.5279H104.538C104.154 13.5279 103.789 13.5792 103.443 13.6816C103.097 13.7712 102.797 13.9249 102.54 14.1426C102.297 14.3475 102.105 14.6356 101.964 15.007C101.823 15.3655 101.753 15.8201 101.753 16.3708V21H99.4479ZM107.178 21V11.319H109.483V21H107.178ZM108.331 9.78229C107.908 9.78229 107.556 9.65424 107.275 9.39813C107.006 9.12921 106.871 8.80267 106.871 8.4185C106.871 8.02152 107.006 7.70138 107.275 7.45808C107.556 7.20197 107.908 7.07391 108.331 7.07391C108.754 7.07391 109.099 7.20197 109.368 7.45808C109.65 7.70138 109.791 8.02152 109.791 8.4185C109.791 8.80267 109.65 9.12921 109.368 9.39813C109.099 9.65424 108.754 9.78229 108.331 9.78229ZM114.798 21L111.225 11.319H113.645L116.2 18.8102L118.755 11.319H121.137L117.564 21H114.798ZM125.447 21.2305C124.653 21.2305 123.994 21.096 123.469 20.8271C122.944 20.5582 122.553 20.1997 122.297 19.7515C122.041 19.3033 121.913 18.8166 121.913 18.2916C121.913 17.6769 122.067 17.1455 122.374 16.6973C122.694 16.2491 123.162 15.9034 123.776 15.6601C124.391 15.404 125.146 15.2759 126.043 15.2759H128.482C128.482 14.7637 128.412 14.3411 128.271 14.0081C128.13 13.6624 127.912 13.4063 127.618 13.2398C127.323 13.0733 126.946 12.9901 126.485 12.9901C125.96 12.9901 125.511 13.1118 125.14 13.3551C124.769 13.5856 124.538 13.9441 124.448 14.4307H122.182C122.259 13.7392 122.489 13.1502 122.873 12.6636C123.258 12.1641 123.763 11.78 124.391 11.5111C125.031 11.2293 125.729 11.0885 126.485 11.0885C127.394 11.0885 128.169 11.2485 128.809 11.5687C129.449 11.876 129.936 12.3242 130.269 12.9133C130.614 13.4895 130.787 14.1874 130.787 15.007V21H128.828L128.597 19.4441C128.469 19.7002 128.303 19.9371 128.098 20.1548C127.906 20.3725 127.682 20.5646 127.426 20.7311C127.17 20.8847 126.875 21.0064 126.542 21.096C126.222 21.1857 125.857 21.2305 125.447 21.2305ZM125.966 19.4057C126.337 19.4057 126.664 19.3417 126.946 19.2136C127.24 19.0728 127.49 18.8807 127.695 18.6374C127.912 18.3813 128.079 18.0995 128.194 17.7922C128.309 17.4849 128.386 17.1583 128.425 16.8126V16.7742H126.292C125.844 16.7742 125.473 16.8318 125.178 16.947C124.884 17.0495 124.673 17.2031 124.545 17.408C124.416 17.6129 124.352 17.8498 124.352 18.1187C124.352 18.3877 124.416 18.6182 124.545 18.8102C124.673 19.0023 124.858 19.1496 125.102 19.252C125.345 19.3545 125.633 19.4057 125.966 19.4057ZM137.841 21.2305C136.893 21.2305 136.042 21.0192 135.286 20.5966C134.543 20.1612 133.961 19.5658 133.538 18.8102C133.128 18.0419 132.924 17.1711 132.924 16.1979C132.924 15.1863 133.128 14.3027 133.538 13.5471C133.961 12.7788 134.543 12.1769 135.286 11.7416C136.042 11.3062 136.9 11.0885 137.86 11.0885C139.064 11.0885 140.076 11.4086 140.895 12.0489C141.715 12.6764 142.24 13.5407 142.47 14.642H140.05C139.922 14.1554 139.653 13.7712 139.243 13.4895C138.846 13.2078 138.372 13.0669 137.822 13.0669C137.348 13.0669 136.913 13.1886 136.516 13.4319C136.131 13.6752 135.824 14.0274 135.594 14.4884C135.376 14.9494 135.267 15.5064 135.267 16.1595C135.267 16.6589 135.331 17.1007 135.459 17.4849C135.587 17.869 135.766 18.1956 135.997 18.4645C136.24 18.7206 136.516 18.9191 136.823 19.06C137.13 19.2008 137.463 19.2712 137.822 19.2712C138.193 19.2712 138.526 19.2136 138.821 19.0984C139.128 18.9703 139.384 18.7846 139.589 18.5413C139.807 18.298 139.96 18.0099 140.05 17.6769H142.47C142.24 18.7526 141.715 19.617 140.895 20.2701C140.076 20.9104 139.057 21.2305 137.841 21.2305ZM145.864 25.2258L148.227 19.9243H147.651L143.79 11.319H146.306L149.187 17.8882L151.915 11.319H154.354L148.304 25.2258H145.864Z" fill="#00B894"/>
<path d="M24.7188 12.6657V8.54788C24.7188 7.07124 23.5903 5.43852 22.2097 4.9223L16.2191 2.67732C15.2226 2.30515 13.5899 2.30515 12.5935 2.67732L6.60285 4.9343C5.22224 5.45053 4.09375 7.08324 4.09375 8.54788V17.4678C4.09375 18.8844 5.03016 20.7452 6.17066 21.5976L11.3329 25.4513C12.1733 26.0996 13.2898 26.4117 14.4063 26.4117" stroke="#00B894" stroke-width="2.16094" stroke-linecap="round" stroke-linejoin="round"/>
<path d="M19.2083 24.0104C21.8605 24.0104 24.0104 21.8605 24.0104 19.2083C24.0104 16.5562 21.8605 14.4062 19.2083 14.4062C16.5562 14.4062 14.4062 16.5562 14.4062 19.2083C14.4062 21.8605 16.5562 24.0104 19.2083 24.0104Z" stroke="#00B894" stroke-width="2.16094" stroke-linecap="round" stroke-linejoin="round"/>
<path d="M25.2057 25.2111H25.2165" stroke="#00B894" stroke-width="2.16094" stroke-linecap="round" stroke-linejoin="round"/>
</svg>
