<svg width="127" height="127" viewBox="0 0 127 127" fill="none" xmlns="http://www.w3.org/2000/svg">
<path d="M55.7497 4.68529C60.454 1.96927 66.2499 1.96928 70.9541 4.68529L110.614 27.583C115.318 30.299 118.216 35.3184 118.216 40.7504V86.5457C118.216 91.9777 115.318 96.9971 110.614 99.7132L70.9541 122.611C66.2499 125.327 60.454 125.327 55.7497 122.611L16.0898 99.7132C11.3855 96.9971 8.48755 91.9777 8.48755 86.5457V40.7504C8.48755 35.3184 11.3855 30.299 16.0898 27.583L55.7497 4.68529Z" fill="white"/>
<path d="M57.31 11.0535C61.0486 8.89504 65.6548 8.89504 69.3934 11.0535L105.879 32.1186C109.618 34.277 111.921 38.2661 111.921 42.5831V84.7131C111.921 89.0301 109.618 93.0192 105.879 95.1777L69.3934 116.243C65.6548 118.401 61.0486 118.401 57.31 116.243L20.8243 95.1777C17.0857 93.0192 14.7826 89.0301 14.7826 84.7131V42.5831C14.7826 38.2661 17.0857 34.277 20.8243 32.1186L57.31 11.0535Z" stroke="#1E90FF" stroke-width="1.43168"/>
<path d="M70.1682 28.4346V25.57C70.1682 24.5428 69.3831 23.407 68.4227 23.0479L64.2553 21.4862C63.5621 21.2273 62.4263 21.2273 61.7332 21.4862L57.5658 23.0562C56.6054 23.4154 55.8203 24.5512 55.8203 25.57V31.7752C55.8203 32.7607 56.4717 34.0551 57.2651 34.6481L60.8563 37.3289C61.4409 37.7799 62.2175 37.997 62.9942 37.997" stroke="#00B894" stroke-width="1.54689" stroke-linecap="round" stroke-linejoin="round"/>
<path d="M66.3347 36.3267C68.1797 36.3267 69.6753 34.8311 69.6753 32.9861C69.6753 31.1411 68.1797 29.6455 66.3347 29.6455C64.4898 29.6455 62.9941 31.1411 62.9941 32.9861C62.9941 34.8311 64.4898 36.3267 66.3347 36.3267Z" stroke="#00B894" stroke-width="1.54689" stroke-linecap="round" stroke-linejoin="round"/>
<path d="M70.5066 37.162H70.5141" stroke="#00B894" stroke-width="1.54689" stroke-linecap="round" stroke-linejoin="round"/>
<path d="M37.8335 49.5308V43.5177H39.7749C40.4736 43.5177 41.0491 43.6408 41.5015 43.8871C41.9596 44.1333 42.2975 44.4827 42.5151 44.9351C42.7385 45.3817 42.8501 45.9143 42.8501 46.5328C42.8501 47.1399 42.7385 47.6696 42.5151 48.122C42.2975 48.5687 41.9596 48.9151 41.5015 49.1614C41.0491 49.4076 40.4736 49.5308 39.7749 49.5308H37.8335ZM38.8643 48.6546H39.7233C40.2445 48.6546 40.6539 48.5715 40.9517 48.4055C41.2552 48.2337 41.47 47.9903 41.596 47.6753C41.7277 47.3546 41.7936 46.9738 41.7936 46.5328C41.7936 46.0861 41.7277 45.7053 41.596 45.3903C41.47 45.0696 41.2552 44.8234 40.9517 44.6516C40.6539 44.4741 40.2445 44.3853 39.7233 44.3853H38.8643V48.6546ZM45.2654 49.6338C44.9104 49.6338 44.6154 49.5737 44.3807 49.4535C44.1459 49.3332 43.9712 49.1728 43.8567 48.9724C43.7421 48.772 43.6849 48.5544 43.6849 48.3196C43.6849 48.0447 43.7536 47.807 43.891 47.6066C44.0342 47.4061 44.2432 47.2515 44.5181 47.1427C44.793 47.0282 45.1309 46.9709 45.5317 46.9709H46.6227C46.6227 46.7418 46.5912 46.5529 46.5282 46.404C46.4652 46.2493 46.3678 46.1348 46.2361 46.0604C46.1044 45.9859 45.9355 45.9487 45.7293 45.9487C45.4945 45.9487 45.2941 46.0031 45.128 46.1119C44.9619 46.215 44.8588 46.3753 44.8187 46.593H43.8051C43.8395 46.2837 43.9426 46.0203 44.1144 45.8027C44.2862 45.5793 44.5124 45.4075 44.793 45.2873C45.0793 45.1613 45.3914 45.0983 45.7293 45.0983C46.1359 45.0983 46.4824 45.1699 46.7687 45.313C47.055 45.4505 47.2727 45.6509 47.4215 45.9143C47.5762 46.172 47.6535 46.4841 47.6535 46.8507V49.5308H46.7773L46.6742 48.835C46.6169 48.9495 46.5425 49.0554 46.4509 49.1528C46.365 49.2502 46.2647 49.3361 46.1502 49.4105C46.0357 49.4792 45.904 49.5336 45.7551 49.5737C45.6119 49.6138 45.4487 49.6338 45.2654 49.6338ZM45.4974 48.8178C45.6634 48.8178 45.8095 48.7892 45.9355 48.7319C46.0672 48.6689 46.1788 48.583 46.2705 48.4742C46.3678 48.3596 46.4423 48.2337 46.4938 48.0962C46.5454 47.9588 46.5797 47.8127 46.5969 47.6581V47.6409H45.6434C45.443 47.6409 45.2769 47.6667 45.1452 47.7183C45.0135 47.7641 44.919 47.8328 44.8617 47.9244C44.8044 48.016 44.7758 48.122 44.7758 48.2422C44.7758 48.3625 44.8044 48.4656 44.8617 48.5515C44.919 48.6374 45.002 48.7032 45.1108 48.7491C45.2196 48.7949 45.3485 48.8178 45.4974 48.8178ZM50.569 49.5308C50.2769 49.5308 50.0221 49.4849 49.8045 49.3933C49.5926 49.3017 49.4265 49.1499 49.3063 48.938C49.186 48.7262 49.1259 48.4398 49.1259 48.079V46.069H48.3871V45.2014H49.1259L49.2461 44.0589H50.1567V45.2014H51.3335V46.069H50.1567V48.079C50.1567 48.2967 50.2025 48.4484 50.2941 48.5343C50.3915 48.6145 50.5518 48.6546 50.7752 48.6546H51.3078V49.5308H50.569ZM53.7465 49.6338C53.3914 49.6338 53.0965 49.5737 52.8617 49.4535C52.6269 49.3332 52.4522 49.1728 52.3377 48.9724C52.2232 48.772 52.1659 48.5544 52.1659 48.3196C52.1659 48.0447 52.2346 47.807 52.3721 47.6066C52.5152 47.4061 52.7242 47.2515 52.9991 47.1427C53.274 47.0282 53.6119 46.9709 54.0128 46.9709H55.1037C55.1037 46.7418 55.0722 46.5529 55.0092 46.404C54.9462 46.2493 54.8489 46.1348 54.7171 46.0604C54.5854 45.9859 54.4165 45.9487 54.2103 45.9487C53.9755 45.9487 53.7751 46.0031 53.609 46.1119C53.443 46.215 53.3399 46.3753 53.2998 46.593H52.2862C52.3205 46.2837 52.4236 46.0203 52.5954 45.8027C52.7672 45.5793 52.9934 45.4075 53.274 45.2873C53.5604 45.1613 53.8725 45.0983 54.2103 45.0983C54.6169 45.0983 54.9634 45.1699 55.2497 45.313C55.5361 45.4505 55.7537 45.6509 55.9026 45.9143C56.0572 46.172 56.1345 46.4841 56.1345 46.8507V49.5308H55.2583L55.1552 48.835C55.098 48.9495 55.0235 49.0554 54.9319 49.1528C54.846 49.2502 54.7458 49.3361 54.6312 49.4105C54.5167 49.4792 54.385 49.5336 54.2361 49.5737C54.0929 49.6138 53.9297 49.6338 53.7465 49.6338ZM53.9784 48.8178C54.1445 48.8178 54.2905 48.7892 54.4165 48.7319C54.5482 48.6689 54.6599 48.583 54.7515 48.4742C54.8489 48.3596 54.9233 48.2337 54.9749 48.0962C55.0264 47.9588 55.0608 47.8127 55.0779 47.6581V47.6409H54.1244C53.924 47.6409 53.7579 47.6667 53.6262 47.7183C53.4945 47.7641 53.4 47.8328 53.3427 47.9244C53.2855 48.016 53.2568 48.122 53.2568 48.2422C53.2568 48.3625 53.2855 48.4656 53.3427 48.5515C53.4 48.6374 53.483 48.7032 53.5918 48.7491C53.7007 48.7949 53.8295 48.8178 53.9784 48.8178ZM59.3675 49.5308V43.5177H61.5322C62.0132 43.5177 62.4112 43.6007 62.7262 43.7668C63.0412 43.9272 63.276 44.1448 63.4306 44.4197C63.5852 44.6945 63.6625 45.0095 63.6625 45.3646C63.6625 45.6967 63.5881 46.0031 63.4392 46.2837C63.2903 46.5586 63.0583 46.7819 62.7434 46.9537C62.4284 47.1198 62.0247 47.2028 61.5322 47.2028H60.3983V49.5308H59.3675ZM60.3983 46.361H61.472C61.8786 46.361 62.1707 46.2723 62.3482 46.0947C62.5258 45.9115 62.6145 45.6681 62.6145 45.3646C62.6145 45.0496 62.5258 44.8033 62.3482 44.6258C62.1707 44.4483 61.8786 44.3595 61.472 44.3595H60.3983V46.361ZM64.5174 49.5308V45.2014H65.4365L65.531 46.0088C65.6341 45.8198 65.7629 45.6595 65.9176 45.5278C66.0722 45.3903 66.2526 45.2844 66.4587 45.2099C66.6706 45.1355 66.9025 45.0983 67.1545 45.0983V46.1892H66.7937C66.6219 46.1892 66.4587 46.2121 66.3041 46.2579C66.1495 46.298 66.0149 46.3667 65.9004 46.4641C65.7916 46.5557 65.7057 46.6846 65.6427 46.8507C65.5797 47.011 65.5482 47.2143 65.5482 47.4605V49.5308H64.5174ZM67.9745 49.5308V45.2014H69.0054V49.5308H67.9745ZM68.4899 44.5141C68.301 44.5141 68.1435 44.4569 68.0175 44.3423C67.8972 44.2221 67.8371 44.0761 67.8371 43.9043C67.8371 43.7267 67.8972 43.5836 68.0175 43.4747C68.1435 43.3602 68.301 43.3029 68.4899 43.3029C68.6789 43.3029 68.8336 43.3602 68.9538 43.4747C69.0798 43.5836 69.1428 43.7267 69.1428 43.9043C69.1428 44.0761 69.0798 44.2221 68.9538 44.3423C68.8336 44.4569 68.6789 44.5141 68.4899 44.5141ZM71.382 49.5308L69.7842 45.2014H70.8666L72.0091 48.5515L73.1515 45.2014H74.2167L72.619 49.5308H71.382ZM76.1445 49.6338C75.7894 49.6338 75.4945 49.5737 75.2597 49.4535C75.0249 49.3332 74.8502 49.1728 74.7357 48.9724C74.6211 48.772 74.5639 48.5544 74.5639 48.3196C74.5639 48.0447 74.6326 47.807 74.77 47.6066C74.9132 47.4061 75.1222 47.2515 75.3971 47.1427C75.672 47.0282 76.0099 46.9709 76.4107 46.9709H77.5017C77.5017 46.7418 77.4702 46.5529 77.4072 46.404C77.3442 46.2493 77.2469 46.1348 77.1151 46.0604C76.9834 45.9859 76.8145 45.9487 76.6083 45.9487C76.3735 45.9487 76.1731 46.0031 76.007 46.1119C75.8409 46.215 75.7379 46.3753 75.6978 46.593H74.6841C74.7185 46.2837 74.8216 46.0203 74.9934 45.8027C75.1652 45.5793 75.3914 45.4075 75.672 45.2873C75.9583 45.1613 76.2704 45.0983 76.6083 45.0983C77.0149 45.0983 77.3614 45.1699 77.6477 45.313C77.9341 45.4505 78.1517 45.6509 78.3006 45.9143C78.4552 46.172 78.5325 46.4841 78.5325 46.8507V49.5308H77.6563L77.5532 48.835C77.496 48.9495 77.4215 49.0554 77.3299 49.1528C77.244 49.2502 77.1438 49.3361 77.0292 49.4105C76.9147 49.4792 76.783 49.5336 76.6341 49.5737C76.4909 49.6138 76.3277 49.6338 76.1445 49.6338ZM76.3764 48.8178C76.5425 48.8178 76.6885 48.7892 76.8145 48.7319C76.9462 48.6689 77.0579 48.583 77.1495 48.4742C77.2469 48.3596 77.3213 48.2337 77.3728 48.0962C77.4244 47.9588 77.4587 47.8127 77.4759 47.6581V47.6409H76.5224C76.322 47.6409 76.1559 47.6667 76.0242 47.7183C75.8925 47.7641 75.798 47.8328 75.7407 47.9244C75.6835 48.016 75.6548 48.122 75.6548 48.2422C75.6548 48.3625 75.6835 48.4656 75.7407 48.5515C75.798 48.6374 75.881 48.7032 75.9898 48.7491C76.0986 48.7949 76.2275 48.8178 76.3764 48.8178ZM81.6869 49.6338C81.2632 49.6338 80.8823 49.5394 80.5445 49.3504C80.2123 49.1557 79.9517 48.8894 79.7628 48.5515C79.5795 48.2079 79.4879 47.8185 79.4879 47.3832C79.4879 46.9308 79.5795 46.5357 79.7628 46.1978C79.9517 45.8542 80.2123 45.585 80.5445 45.3903C80.8823 45.1956 81.266 45.0983 81.6955 45.0983C82.2338 45.0983 82.6863 45.2414 83.0528 45.5278C83.4193 45.8084 83.6541 46.1949 83.7572 46.6874H82.6748C82.6175 46.4698 82.4973 46.298 82.314 46.172C82.1365 46.046 81.9246 45.9831 81.6784 45.9831C81.4665 45.9831 81.2718 46.0375 81.0942 46.1463C80.9224 46.2551 80.785 46.4126 80.6819 46.6187C80.5845 46.8249 80.5359 47.074 80.5359 47.3661C80.5359 47.5894 80.5645 47.787 80.6218 47.9588C80.679 48.1306 80.7592 48.2766 80.8623 48.3969C80.9711 48.5114 81.0942 48.6002 81.2317 48.6632C81.3691 48.7262 81.518 48.7577 81.6784 48.7577C81.8444 48.7577 81.9933 48.7319 82.125 48.6803C82.2625 48.6231 82.377 48.54 82.4686 48.4312C82.566 48.3224 82.6347 48.1936 82.6748 48.0447H83.7572C83.6541 48.5257 83.4193 48.9123 83.0528 49.2043C82.6863 49.4907 82.231 49.6338 81.6869 49.6338ZM85.275 51.4206L86.3316 49.0497H86.0739L84.3473 45.2014H85.4726L86.7611 48.1392L87.9809 45.2014H89.0719L86.366 51.4206H85.275Z" fill="#00B894"/>
<path d="M44.4709 86.1755L46.8532 79.6614H48.1002L50.4825 86.1755H49.3007L47.4674 80.9642L45.6342 86.1755H44.4709ZM45.5318 84.6401L45.8296 83.756H49.0401L49.3379 84.6401H45.5318ZM54.1235 86.2872C53.5093 86.2872 52.9696 86.1476 52.5043 85.8684C52.0452 85.5893 51.6884 85.2015 51.4341 84.7052C51.1797 84.2027 51.0525 83.6164 51.0525 82.9464C51.0525 82.2826 51.1828 81.6963 51.4434 81.1876C51.704 80.6726 52.0762 80.2725 52.5601 79.9871C53.0502 79.6955 53.6303 79.5497 54.3003 79.5497C55.0572 79.5497 55.6838 79.7327 56.1801 80.0988C56.6826 80.4586 57.0083 80.9611 57.1572 81.6063H55.9009C55.8079 81.2837 55.6249 81.0325 55.3519 80.8525C55.0789 80.6726 54.7253 80.5827 54.291 80.5827C53.8505 80.5827 53.4721 80.6788 53.1557 80.8712C52.8455 81.0573 52.6066 81.3302 52.4391 81.6901C52.2778 82.0437 52.1972 82.4656 52.1972 82.9557C52.1972 83.4458 52.2778 83.8677 52.4391 84.2213C52.6066 84.5749 52.8424 84.8448 53.1464 85.0309C53.4504 85.2108 53.8071 85.3008 54.2166 85.3008C54.8245 85.3008 55.2836 85.1302 55.5938 84.789C55.904 84.4477 56.087 84.0042 56.1429 83.4582H54.4585V82.6114H57.2689V86.1755H56.2452L56.1522 85.2822C56.0095 85.4931 55.8451 85.6761 55.659 85.8312C55.4729 85.9801 55.2526 86.0949 54.9983 86.1755C54.7501 86.25 54.4585 86.2872 54.1235 86.2872ZM58.7528 86.1755V79.6614H62.9591V80.5641H59.8695V82.4346H62.6799V83.3186H59.8695V85.2729H62.9591V86.1755H58.7528ZM64.412 86.1755V79.6614H65.5287L68.6648 84.3702V79.6614H69.7815V86.1755H68.6648L65.5287 81.476V86.1755H64.412ZM74.2649 86.2872C73.6197 86.2872 73.0613 86.1476 72.5898 85.8684C72.1245 85.5831 71.7647 85.1891 71.5103 84.6866C71.2622 84.1779 71.1381 83.5916 71.1381 82.9278C71.1381 82.2577 71.2622 81.6715 71.5103 81.1689C71.7647 80.6602 72.1245 80.2632 72.5898 79.9778C73.0613 79.6924 73.6197 79.5497 74.2649 79.5497C75.0404 79.5497 75.6732 79.742 76.1633 80.1267C76.6534 80.5051 76.9636 81.0418 77.0939 81.7366H75.8655C75.7786 81.3706 75.6018 81.0821 75.3351 80.8712C75.0683 80.6602 74.7085 80.5548 74.2556 80.5548C73.8461 80.5548 73.4925 80.6509 73.1947 80.8432C72.9031 81.0294 72.6767 81.3023 72.5154 81.6622C72.3603 82.0158 72.2827 82.4377 72.2827 82.9278C72.2827 83.4179 72.3603 83.8397 72.5154 84.1934C72.6767 84.5408 72.9031 84.8107 73.1947 85.003C73.4925 85.1891 73.8461 85.2822 74.2556 85.2822C74.7085 85.2822 75.0683 85.186 75.3351 84.9937C75.6018 84.7952 75.7786 84.5222 75.8655 84.1748H77.0939C76.9698 84.8324 76.6596 85.3504 76.1633 85.7289C75.6732 86.1011 75.0404 86.2872 74.2649 86.2872ZM79.7951 86.1755V83.8304L77.6268 79.6614H78.8924L80.4837 82.9743H80.2418L81.8331 79.6614H83.0894L80.9118 83.8304V86.1755H79.7951ZM43.3372 99.1755V92.6614H45.6823C46.2034 92.6614 46.6346 92.7513 46.9758 92.9313C47.317 93.105 47.5714 93.3407 47.7389 93.6385C47.9064 93.9363 47.9901 94.2775 47.9901 94.6622C47.9901 95.022 47.9095 95.3539 47.7482 95.6579C47.5869 95.9557 47.3356 96.1976 46.9944 96.3838C46.6532 96.5637 46.2158 96.6536 45.6823 96.6536H44.4539V99.1755H43.3372ZM44.4539 95.7416H45.6171C46.0576 95.7416 46.374 95.6455 46.5663 95.4532C46.7586 95.2546 46.8548 94.991 46.8548 94.6622C46.8548 94.3209 46.7586 94.0542 46.5663 93.8619C46.374 93.6695 46.0576 93.5734 45.6171 93.5734H44.4539V95.7416ZM48.0866 99.1755L50.4689 92.6614H51.7159L54.0982 99.1755H52.9164L51.0831 93.9642L49.2498 99.1755H48.0866ZM49.1475 97.6401L49.4453 96.756H52.6558L52.9536 97.6401H49.1475ZM55.2735 99.1755V92.6614H57.6093C58.1242 92.6614 58.5492 92.7513 58.8842 92.9313C59.2254 93.105 59.4766 93.3407 59.6379 93.6385C59.8055 93.9301 59.8892 94.262 59.8892 94.6342C59.8892 94.9817 59.8086 95.3043 59.6473 95.6021C59.486 95.8998 59.2347 96.1387 58.8935 96.3186C58.5523 96.4985 58.1149 96.5885 57.5813 96.5885H56.3902V99.1755H55.2735ZM58.6701 99.1755L57.3022 96.3H58.5119L59.945 99.1755H58.6701ZM56.3902 95.7603H57.5348C57.9505 95.7603 58.2545 95.661 58.4468 95.4625C58.6453 95.2577 58.7446 94.991 58.7446 94.6622C58.7446 94.3396 58.6484 94.0821 58.4561 93.8898C58.2638 93.6912 57.9567 93.592 57.5348 93.592H56.3902V95.7603ZM62.8403 99.1755V93.5641H60.9233V92.6614H65.8647V93.5641H63.9477V99.1755H62.8403ZM67.0644 99.1755V92.6614H68.1811L71.3172 97.3702V92.6614H72.4339V99.1755H71.3172L68.1811 94.476V99.1755H67.0644ZM74.0231 99.1755V92.6614H78.2294V93.5641H75.1398V95.4346H77.9502V96.3186H75.1398V98.2729H78.2294V99.1755H74.0231ZM79.6823 99.1755V92.6614H82.0181C82.533 92.6614 82.958 92.7513 83.293 92.9313C83.6342 93.105 83.8854 93.3407 84.0467 93.6385C84.2143 93.9301 84.298 94.262 84.298 94.6342C84.298 94.9817 84.2174 95.3043 84.0561 95.6021C83.8948 95.8998 83.6435 96.1387 83.3023 96.3186C82.9611 96.4985 82.5237 96.5885 81.9901 96.5885H80.799V99.1755H79.6823ZM83.0789 99.1755L81.711 96.3H82.9207L84.3538 99.1755H83.0789ZM80.799 95.7603H81.9436C82.3593 95.7603 82.6633 95.661 82.8556 95.4625C83.0541 95.2577 83.1534 94.991 83.1534 94.6622C83.1534 94.3396 83.0572 94.0821 82.8649 93.8898C82.6726 93.6912 82.3655 93.592 81.9436 93.592H80.799V95.7603Z" fill="#686868"/>
<rect x="14.7139" y="56.7" width="96.6385" height="14.3168" fill="#1E90FF"/>
<path d="M43.8157 66.1521V61.5744H45.2936C45.6511 61.5744 45.9432 61.6354 46.1699 61.7575C46.3966 61.8752 46.5645 62.0344 46.6734 62.2349C46.7824 62.4355 46.8369 62.6622 46.8369 62.915C46.8369 63.1592 46.7803 63.3837 46.6669 63.5886C46.5579 63.7935 46.3879 63.957 46.1568 64.0791C45.9258 64.2011 45.6293 64.2622 45.2674 64.2622H44.365V66.1521H43.8157ZM46.2353 66.1521L45.2282 64.1052H45.8429L46.8827 66.1521H46.2353ZM44.365 63.8306H45.2544C45.6031 63.8306 45.8582 63.7455 46.0195 63.5755C46.1852 63.4055 46.268 63.1875 46.268 62.9216C46.268 62.6513 46.1873 62.4376 46.026 62.2807C45.8691 62.1194 45.6097 62.0387 45.2478 62.0387H44.365V63.8306ZM47.9601 66.1521V61.5744H50.7917V62.0256H48.5094V63.6213H50.5955V64.066H48.5094V65.7009H50.7917V66.1521H47.9601ZM53.8877 66.2306C53.4605 66.2306 53.0856 66.1325 52.7629 65.9363C52.4403 65.7357 52.1896 65.4589 52.0109 65.1058C51.8321 64.7526 51.7428 64.3406 51.7428 63.8698C51.7428 63.4033 51.8321 62.9913 52.0109 62.6338C52.194 62.2763 52.4512 61.9973 52.7826 61.7968C53.1183 61.5962 53.5128 61.4959 53.9662 61.4959C54.4807 61.4959 54.9101 61.6202 55.2545 61.8687C55.5989 62.1128 55.8191 62.4551 55.915 62.8954H55.2807C55.2196 62.6207 55.0758 62.4028 54.8491 62.2414C54.6224 62.0801 54.3281 61.9995 53.9662 61.9995C53.6305 61.9995 53.3362 62.0758 53.0834 62.2284C52.8349 62.3766 52.6431 62.5902 52.5079 62.8692C52.3728 63.1483 52.3052 63.4818 52.3052 63.8698C52.3052 64.2578 52.3728 64.5935 52.5079 64.8769C52.6431 65.1559 52.8305 65.3695 53.0703 65.5178C53.3144 65.666 53.5935 65.7401 53.9074 65.7401C54.3957 65.7401 54.764 65.5962 55.0126 65.3085C55.2611 65.0208 55.4027 64.6306 55.4376 64.1379H54.1166V63.7063H56V66.1521H55.4965L55.4507 65.4001C55.3417 65.5788 55.2153 65.7314 55.0714 65.8578C54.9319 65.9799 54.7662 66.0736 54.5744 66.139C54.3826 66.2001 54.1537 66.2306 53.8877 66.2306ZM57.1367 66.1521V61.5744H57.686V66.1521H57.1367ZM60.3893 66.2306C60.0536 66.2306 59.7615 66.1695 59.513 66.0475C59.2645 65.9254 59.0727 65.7554 58.9375 65.5374C58.8024 65.3194 58.7348 65.0665 58.7348 64.7788H59.3103C59.3103 64.9575 59.3517 65.1232 59.4345 65.2758C59.5173 65.424 59.6372 65.5439 59.7942 65.6355C59.9555 65.7227 60.1539 65.7663 60.3893 65.7663C60.5942 65.7663 60.7686 65.7336 60.9125 65.6682C61.0607 65.5984 61.1719 65.5047 61.246 65.387C61.3244 65.2693 61.3637 65.1363 61.3637 64.9881C61.3637 64.8093 61.3244 64.6654 61.246 64.5564C61.1719 64.4431 61.0694 64.3515 60.9386 64.2818C60.8078 64.212 60.6552 64.151 60.4808 64.0987C60.3108 64.042 60.1321 63.9831 59.9446 63.9221C59.5827 63.8 59.3168 63.6475 59.1468 63.4643C58.9767 63.2812 58.8917 63.0436 58.8917 62.7515C58.8917 62.503 58.9484 62.285 59.0618 62.0976C59.1795 61.9101 59.3451 61.7641 59.5588 61.6594C59.7767 61.5504 60.034 61.4959 60.3304 61.4959C60.6225 61.4959 60.8754 61.5504 61.089 61.6594C61.307 61.7684 61.477 61.9188 61.5991 62.1107C61.7212 62.2981 61.7822 62.5161 61.7822 62.7646H61.2067C61.2067 62.6382 61.174 62.5139 61.1086 62.3919C61.0432 62.2698 60.943 62.1695 60.8078 62.091C60.677 62.0082 60.5114 61.9668 60.3108 61.9668C60.1451 61.9624 59.9969 61.9908 59.8661 62.0518C59.7397 62.1085 59.6394 62.1913 59.5653 62.3003C59.4955 62.4093 59.4607 62.5423 59.4607 62.6992C59.4607 62.8474 59.4912 62.9673 59.5522 63.0589C59.6176 63.1504 59.7092 63.2289 59.8269 63.2943C59.949 63.3554 60.0906 63.412 60.252 63.4643C60.4133 63.5167 60.592 63.5755 60.7882 63.6409C61.0105 63.715 61.2067 63.8066 61.3768 63.9156C61.5511 64.0202 61.6863 64.1554 61.7822 64.321C61.8825 64.4867 61.9326 64.6981 61.9326 64.9554C61.9326 65.1733 61.8738 65.3804 61.7561 65.5766C61.6427 65.7684 61.4727 65.9254 61.246 66.0475C61.0193 66.1695 60.7337 66.2306 60.3893 66.2306ZM63.9499 66.1521V62.0256H62.5832V61.5744H65.866V62.0256H64.4992V66.1521H63.9499ZM66.8047 66.1521V61.5744H69.6364V62.0256H67.3541V63.6213H69.4402V64.066H67.3541V65.7009H69.6364V66.1521H66.8047ZM70.764 66.1521V61.5744H72.2419C72.5994 61.5744 72.8915 61.6354 73.1182 61.7575C73.3449 61.8752 73.5128 62.0344 73.6218 62.2349C73.7308 62.4355 73.7853 62.6622 73.7853 62.915C73.7853 63.1592 73.7286 63.3837 73.6152 63.5886C73.5062 63.7935 73.3362 63.957 73.1051 64.0791C72.8741 64.2011 72.5776 64.2622 72.2158 64.2622H71.3133V66.1521H70.764ZM73.1836 66.1521L72.1765 64.1052H72.7912L73.831 66.1521H73.1836ZM71.3133 63.8306H72.2027C72.5515 63.8306 72.8065 63.7455 72.9678 63.5755C73.1335 63.4055 73.2163 63.1875 73.2163 62.9216C73.2163 62.6513 73.1357 62.4376 72.9743 62.2807C72.8174 62.1194 72.558 62.0387 72.1961 62.0387H71.3133V63.8306ZM74.9084 66.1521V61.5744H77.74V62.0256H75.4577V63.6213H77.5439V64.066H75.4577V65.7009H77.74V66.1521H74.9084ZM78.8677 66.1521V61.5744H80.2148C80.7511 61.5744 81.1914 61.6681 81.5358 61.8556C81.8846 62.0387 82.1418 62.3025 82.3075 62.6469C82.4775 62.987 82.5625 63.3968 82.5625 63.8763C82.5625 64.3472 82.4775 64.7526 82.3075 65.0927C82.1418 65.4327 81.8846 65.6943 81.5358 65.8774C81.1914 66.0605 80.7511 66.1521 80.2148 66.1521H78.8677ZM79.417 65.6943H80.2017C80.6464 65.6943 80.9996 65.6224 81.2611 65.4785C81.5227 65.3303 81.7102 65.121 81.8235 64.8507C81.9369 64.5761 81.9936 64.2513 81.9936 63.8763C81.9936 63.4927 81.9369 63.1635 81.8235 62.8889C81.7102 62.6142 81.5227 62.4028 81.2611 62.2545C80.9996 62.1063 80.6464 62.0322 80.2017 62.0322H79.417V65.6943Z" fill="white"/>
</svg>
