<svg width="127" height="127" viewBox="0 0 127 127" fill="none" xmlns="http://www.w3.org/2000/svg">
<path d="M56.0461 4.68529C60.7504 1.96927 66.5463 1.96928 71.2505 4.68529L110.91 27.583C115.615 30.299 118.513 35.3184 118.513 40.7504V86.5457C118.513 91.9777 115.615 96.9971 110.91 99.7132L71.2505 122.611C66.5462 125.327 60.7503 125.327 56.0461 122.611L16.3862 99.7132C11.6819 96.9971 8.78394 91.9777 8.78394 86.5457V40.7504C8.78394 35.3184 11.6819 30.299 16.3862 27.583L56.0461 4.68529Z" fill="white"/>
<path d="M57.6069 11.0535C61.3455 8.89504 65.9517 8.89504 69.6903 11.0535L106.176 32.1186C109.915 34.277 112.218 38.2661 112.218 42.5831V84.7131C112.218 89.0301 109.915 93.0192 106.176 95.1777L69.6903 116.243C65.9517 118.401 61.3455 118.401 57.6069 116.243L21.1212 95.1777C17.3826 93.0192 15.0795 89.0301 15.0795 84.7131V42.5831C15.0795 38.2661 17.3826 34.277 21.1212 32.1186L57.6069 11.0535Z" stroke="#00B894" stroke-width="1.43168"/>
<path d="M70.4645 28.4346V25.57C70.4645 24.5428 69.6795 23.407 68.7191 23.0479L64.5517 21.4862C63.8585 21.2273 62.7227 21.2273 62.0295 21.4862L57.8622 23.0562C56.9017 23.4154 56.1167 24.5512 56.1167 25.57V31.7752C56.1167 32.7607 56.7681 34.0551 57.5615 34.6481L61.1526 37.3289C61.7372 37.7799 62.5139 37.997 63.2906 37.997" stroke="#00B894" stroke-width="1.54689" stroke-linecap="round" stroke-linejoin="round"/>
<path d="M66.6311 36.3267C68.4761 36.3267 69.9717 34.8311 69.9717 32.9861C69.9717 31.1411 68.4761 29.6455 66.6311 29.6455C64.7862 29.6455 63.2905 31.1411 63.2905 32.9861C63.2905 34.8311 64.7862 36.3267 66.6311 36.3267Z" stroke="#00B894" stroke-width="1.54689" stroke-linecap="round" stroke-linejoin="round"/>
<path d="M70.803 37.162H70.8105" stroke="#00B894" stroke-width="1.54689" stroke-linecap="round" stroke-linejoin="round"/>
<path d="M38.1294 49.5308V43.5177H40.0708C40.7694 43.5177 41.345 43.6408 41.7974 43.8871C42.2555 44.1333 42.5934 44.4827 42.811 44.9351C43.0344 45.3817 43.146 45.9143 43.146 46.5328C43.146 47.1399 43.0344 47.6696 42.811 48.122C42.5934 48.5687 42.2555 48.9151 41.7974 49.1614C41.345 49.4076 40.7694 49.5308 40.0708 49.5308H38.1294ZM39.1602 48.6546H40.0192C40.5404 48.6546 40.9498 48.5715 41.2476 48.4055C41.5511 48.2337 41.7659 47.9903 41.8919 47.6753C42.0236 47.3546 42.0895 46.9738 42.0895 46.5328C42.0895 46.0861 42.0236 45.7053 41.8919 45.3903C41.7659 45.0696 41.5511 44.8234 41.2476 44.6516C40.9498 44.4741 40.5404 44.3853 40.0192 44.3853H39.1602V48.6546ZM45.5613 49.6338C45.2063 49.6338 44.9113 49.5737 44.6766 49.4535C44.4418 49.3332 44.2671 49.1728 44.1526 48.9724C44.038 48.772 43.9808 48.5544 43.9808 48.3196C43.9808 48.0447 44.0495 47.807 44.1869 47.6066C44.3301 47.4061 44.5391 47.2515 44.814 47.1427C45.0889 47.0282 45.4268 46.9709 45.8276 46.9709H46.9186C46.9186 46.7418 46.8871 46.5529 46.8241 46.404C46.7611 46.2493 46.6637 46.1348 46.532 46.0604C46.4003 45.9859 46.2314 45.9487 46.0252 45.9487C45.7904 45.9487 45.59 46.0031 45.4239 46.1119C45.2578 46.215 45.1547 46.3753 45.1146 46.593H44.101C44.1354 46.2837 44.2385 46.0203 44.4103 45.8027C44.5821 45.5793 44.8083 45.4075 45.0889 45.2873C45.3752 45.1613 45.6873 45.0983 46.0252 45.0983C46.4318 45.0983 46.7783 45.1699 47.0646 45.313C47.3509 45.4505 47.5685 45.6509 47.7174 45.9143C47.8721 46.172 47.9494 46.4841 47.9494 46.8507V49.5308H47.0732L46.9701 48.835C46.9128 48.9495 46.8384 49.0554 46.7468 49.1528C46.6609 49.2502 46.5606 49.3361 46.4461 49.4105C46.3316 49.4792 46.1999 49.5336 46.051 49.5737C45.9078 49.6138 45.7446 49.6338 45.5613 49.6338ZM45.7933 48.8178C45.9593 48.8178 46.1054 48.7892 46.2314 48.7319C46.3631 48.6689 46.4747 48.583 46.5664 48.4742C46.6637 48.3596 46.7382 48.2337 46.7897 48.0962C46.8413 47.9588 46.8756 47.8127 46.8928 47.6581V47.6409H45.9393C45.7389 47.6409 45.5728 47.6667 45.4411 47.7183C45.3094 47.7641 45.2149 47.8328 45.1576 47.9244C45.1003 48.016 45.0717 48.122 45.0717 48.2422C45.0717 48.3625 45.1003 48.4656 45.1576 48.5515C45.2149 48.6374 45.2979 48.7032 45.4067 48.7491C45.5155 48.7949 45.6444 48.8178 45.7933 48.8178ZM50.8649 49.5308C50.5728 49.5308 50.318 49.4849 50.1004 49.3933C49.8885 49.3017 49.7224 49.1499 49.6022 48.938C49.4819 48.7262 49.4218 48.4398 49.4218 48.079V46.069H48.683V45.2014H49.4218L49.542 44.0589H50.4526V45.2014H51.6294V46.069H50.4526V48.079C50.4526 48.2967 50.4984 48.4484 50.59 48.5343C50.6874 48.6145 50.8477 48.6546 51.0711 48.6546H51.6037V49.5308H50.8649ZM54.0424 49.6338C53.6873 49.6338 53.3924 49.5737 53.1576 49.4535C52.9228 49.3332 52.7481 49.1728 52.6336 48.9724C52.5191 48.772 52.4618 48.5544 52.4618 48.3196C52.4618 48.0447 52.5305 47.807 52.668 47.6066C52.8111 47.4061 53.0201 47.2515 53.295 47.1427C53.5699 47.0282 53.9078 46.9709 54.3087 46.9709H55.3996C55.3996 46.7418 55.3681 46.5529 55.3051 46.404C55.2421 46.2493 55.1448 46.1348 55.013 46.0604C54.8813 45.9859 54.7124 45.9487 54.5062 45.9487C54.2714 45.9487 54.071 46.0031 53.9049 46.1119C53.7389 46.215 53.6358 46.3753 53.5957 46.593H52.5821C52.6164 46.2837 52.7195 46.0203 52.8913 45.8027C53.0631 45.5793 53.2893 45.4075 53.5699 45.2873C53.8562 45.1613 54.1684 45.0983 54.5062 45.0983C54.9128 45.0983 55.2593 45.1699 55.5456 45.313C55.832 45.4505 56.0496 45.6509 56.1985 45.9143C56.3531 46.172 56.4304 46.4841 56.4304 46.8507V49.5308H55.5542L55.4511 48.835C55.3939 48.9495 55.3194 49.0554 55.2278 49.1528C55.1419 49.2502 55.0417 49.3361 54.9271 49.4105C54.8126 49.4792 54.6809 49.5336 54.532 49.5737C54.3888 49.6138 54.2256 49.6338 54.0424 49.6338ZM54.2743 48.8178C54.4404 48.8178 54.5864 48.7892 54.7124 48.7319C54.8441 48.6689 54.9558 48.583 55.0474 48.4742C55.1448 48.3596 55.2192 48.2337 55.2708 48.0962C55.3223 47.9588 55.3567 47.8127 55.3738 47.6581V47.6409H54.4203C54.2199 47.6409 54.0538 47.6667 53.9221 47.7183C53.7904 47.7641 53.6959 47.8328 53.6386 47.9244C53.5814 48.016 53.5527 48.122 53.5527 48.2422C53.5527 48.3625 53.5814 48.4656 53.6386 48.5515C53.6959 48.6374 53.7789 48.7032 53.8877 48.7491C53.9966 48.7949 54.1254 48.8178 54.2743 48.8178ZM59.6634 49.5308V43.5177H61.8281C62.3091 43.5177 62.7071 43.6007 63.0221 43.7668C63.3371 43.9272 63.5719 44.1448 63.7265 44.4197C63.8811 44.6945 63.9584 45.0095 63.9584 45.3646C63.9584 45.6967 63.884 46.0031 63.7351 46.2837C63.5862 46.5586 63.3542 46.7819 63.0393 46.9537C62.7243 47.1198 62.3206 47.2028 61.8281 47.2028H60.6942V49.5308H59.6634ZM60.6942 46.361H61.7679C62.1745 46.361 62.4666 46.2723 62.6441 46.0947C62.8217 45.9115 62.9104 45.6681 62.9104 45.3646C62.9104 45.0496 62.8217 44.8033 62.6441 44.6258C62.4666 44.4483 62.1745 44.3595 61.7679 44.3595H60.6942V46.361ZM64.8133 49.5308V45.2014H65.7324L65.8269 46.0088C65.93 45.8198 66.0588 45.6595 66.2135 45.5278C66.3681 45.3903 66.5485 45.2844 66.7546 45.2099C66.9665 45.1355 67.1984 45.0983 67.4504 45.0983V46.1892H67.0896C66.9178 46.1892 66.7546 46.2121 66.6 46.2579C66.4454 46.298 66.3108 46.3667 66.1963 46.4641C66.0875 46.5557 66.0016 46.6846 65.9386 46.8507C65.8756 47.011 65.8441 47.2143 65.8441 47.4605V49.5308H64.8133ZM68.2704 49.5308V45.2014H69.3013V49.5308H68.2704ZM68.7858 44.5141C68.5969 44.5141 68.4394 44.4569 68.3134 44.3423C68.1931 44.2221 68.133 44.0761 68.133 43.9043C68.133 43.7267 68.1931 43.5836 68.3134 43.4747C68.4394 43.3602 68.5969 43.3029 68.7858 43.3029C68.9748 43.3029 69.1295 43.3602 69.2497 43.4747C69.3757 43.5836 69.4387 43.7267 69.4387 43.9043C69.4387 44.0761 69.3757 44.2221 69.2497 44.3423C69.1295 44.4569 68.9748 44.5141 68.7858 44.5141ZM71.6779 49.5308L70.0801 45.2014H71.1625L72.305 48.5515L73.4474 45.2014H74.5126L72.9149 49.5308H71.6779ZM76.4404 49.6338C76.0853 49.6338 75.7904 49.5737 75.5556 49.4535C75.3208 49.3332 75.1461 49.1728 75.0316 48.9724C74.917 48.772 74.8598 48.5544 74.8598 48.3196C74.8598 48.0447 74.9285 47.807 75.0659 47.6066C75.2091 47.4061 75.4181 47.2515 75.693 47.1427C75.9679 47.0282 76.3058 46.9709 76.7066 46.9709H77.7976C77.7976 46.7418 77.7661 46.5529 77.7031 46.404C77.6401 46.2493 77.5428 46.1348 77.411 46.0604C77.2793 45.9859 77.1104 45.9487 76.9042 45.9487C76.6694 45.9487 76.469 46.0031 76.3029 46.1119C76.1368 46.215 76.0338 46.3753 75.9937 46.593H74.98C75.0144 46.2837 75.1175 46.0203 75.2893 45.8027C75.4611 45.5793 75.6873 45.4075 75.9679 45.2873C76.2542 45.1613 76.5663 45.0983 76.9042 45.0983C77.3108 45.0983 77.6573 45.1699 77.9436 45.313C78.23 45.4505 78.4476 45.6509 78.5965 45.9143C78.7511 46.172 78.8284 46.4841 78.8284 46.8507V49.5308H77.9522L77.8491 48.835C77.7919 48.9495 77.7174 49.0554 77.6258 49.1528C77.5399 49.2502 77.4397 49.3361 77.3251 49.4105C77.2106 49.4792 77.0789 49.5336 76.93 49.5737C76.7868 49.6138 76.6236 49.6338 76.4404 49.6338ZM76.6723 48.8178C76.8384 48.8178 76.9844 48.7892 77.1104 48.7319C77.2421 48.6689 77.3538 48.583 77.4454 48.4742C77.5428 48.3596 77.6172 48.2337 77.6687 48.0962C77.7203 47.9588 77.7546 47.8127 77.7718 47.6581V47.6409H76.8183C76.6179 47.6409 76.4518 47.6667 76.3201 47.7183C76.1884 47.7641 76.0939 47.8328 76.0366 47.9244C75.9794 48.016 75.9507 48.122 75.9507 48.2422C75.9507 48.3625 75.9794 48.4656 76.0366 48.5515C76.0939 48.6374 76.1769 48.7032 76.2857 48.7491C76.3945 48.7949 76.5234 48.8178 76.6723 48.8178ZM81.9828 49.6338C81.5591 49.6338 81.1782 49.5394 80.8404 49.3504C80.5082 49.1557 80.2476 48.8894 80.0587 48.5515C79.8754 48.2079 79.7838 47.8185 79.7838 47.3832C79.7838 46.9308 79.8754 46.5357 80.0587 46.1978C80.2476 45.8542 80.5082 45.585 80.8404 45.3903C81.1782 45.1956 81.5619 45.0983 81.9914 45.0983C82.5297 45.0983 82.9822 45.2414 83.3487 45.5278C83.7152 45.8084 83.95 46.1949 84.0531 46.6874H82.9707C82.9134 46.4698 82.7932 46.298 82.6099 46.172C82.4324 46.046 82.2205 45.9831 81.9743 45.9831C81.7624 45.9831 81.5677 46.0375 81.3901 46.1463C81.2183 46.2551 81.0809 46.4126 80.9778 46.6187C80.8804 46.8249 80.8318 47.074 80.8318 47.3661C80.8318 47.5894 80.8604 47.787 80.9177 47.9588C80.9749 48.1306 81.0551 48.2766 81.1582 48.3969C81.267 48.5114 81.3901 48.6002 81.5276 48.6632C81.665 48.7262 81.8139 48.7577 81.9743 48.7577C82.1403 48.7577 82.2892 48.7319 82.4209 48.6803C82.5584 48.6231 82.6729 48.54 82.7645 48.4312C82.8619 48.3224 82.9306 48.1936 82.9707 48.0447H84.0531C83.95 48.5257 83.7152 48.9123 83.3487 49.2043C82.9822 49.4907 82.5269 49.6338 81.9828 49.6338ZM85.5709 51.4206L86.6275 49.0497H86.3698L84.6432 45.2014H85.7685L87.057 48.1392L88.2768 45.2014H89.3678L86.6619 51.4206H85.5709Z" fill="#00B894"/>
<path d="M44.7673 86.1755L47.1496 79.6614H48.3966L50.7789 86.1755H49.5971L47.7638 80.9642L45.9305 86.1755H44.7673ZM45.8282 84.6401L46.126 83.756H49.3365L49.6343 84.6401H45.8282ZM54.4199 86.2872C53.8057 86.2872 53.2659 86.1476 52.8006 85.8684C52.3416 85.5893 51.9848 85.2015 51.7305 84.7052C51.4761 84.2027 51.3489 83.6164 51.3489 82.9464C51.3489 82.2826 51.4792 81.6963 51.7398 81.1876C52.0003 80.6726 52.3726 80.2725 52.8565 79.9871C53.3466 79.6955 53.9267 79.5497 54.5967 79.5497C55.3536 79.5497 55.9802 79.7327 56.4765 80.0988C56.979 80.4586 57.3047 80.9611 57.4536 81.6063H56.1973C56.1043 81.2837 55.9212 81.0325 55.6483 80.8525C55.3753 80.6726 55.0217 80.5827 54.5874 80.5827C54.1469 80.5827 53.7685 80.6788 53.4521 80.8712C53.1419 81.0573 52.903 81.3302 52.7355 81.6901C52.5742 82.0437 52.4936 82.4656 52.4936 82.9557C52.4936 83.4458 52.5742 83.8677 52.7355 84.2213C52.903 84.5749 53.1388 84.8448 53.4428 85.0309C53.7468 85.2108 54.1035 85.3008 54.5129 85.3008C55.1209 85.3008 55.58 85.1302 55.8902 84.789C56.2004 84.4477 56.3834 84.0042 56.4393 83.4582H54.7549V82.6114H57.5653V86.1755H56.5416L56.4486 85.2822C56.3059 85.4931 56.1415 85.6761 55.9554 85.8312C55.7692 85.9801 55.549 86.0949 55.2946 86.1755C55.0465 86.25 54.7549 86.2872 54.4199 86.2872ZM59.0492 86.1755V79.6614H63.2555V80.5641H60.1659V82.4346H62.9763V83.3186H60.1659V85.2729H63.2555V86.1755H59.0492ZM64.7084 86.1755V79.6614H65.8251L68.9612 84.3702V79.6614H70.0779V86.1755H68.9612L65.8251 81.476V86.1755H64.7084ZM74.5613 86.2872C73.916 86.2872 73.3577 86.1476 72.8862 85.8684C72.4209 85.5831 72.0611 85.1891 71.8067 84.6866C71.5585 84.1779 71.4345 83.5916 71.4345 82.9278C71.4345 82.2577 71.5585 81.6715 71.8067 81.1689C72.0611 80.6602 72.4209 80.2632 72.8862 79.9778C73.3577 79.6924 73.916 79.5497 74.5613 79.5497C75.3368 79.5497 75.9696 79.742 76.4597 80.1267C76.9498 80.5051 77.26 81.0418 77.3903 81.7366H76.1619C76.075 81.3706 75.8982 81.0821 75.6314 80.8712C75.3647 80.6602 75.0048 80.5548 74.552 80.5548C74.1425 80.5548 73.7889 80.6509 73.4911 80.8432C73.1995 81.0294 72.973 81.3023 72.8117 81.6622C72.6566 82.0158 72.5791 82.4377 72.5791 82.9278C72.5791 83.4179 72.6566 83.8397 72.8117 84.1934C72.973 84.5408 73.1995 84.8107 73.4911 85.003C73.7889 85.1891 74.1425 85.2822 74.552 85.2822C75.0048 85.2822 75.3647 85.186 75.6314 84.9937C75.8982 84.7952 76.075 84.5222 76.1619 84.1748H77.3903C77.2662 84.8324 76.956 85.3504 76.4597 85.7289C75.9696 86.1011 75.3368 86.2872 74.5613 86.2872ZM80.0915 86.1755V83.8304L77.9232 79.6614H79.1888L80.7801 82.9743H80.5381L82.1295 79.6614H83.3858L81.2082 83.8304V86.1755H80.0915ZM43.6335 99.1755V92.6614H45.9786C46.4998 92.6614 46.9309 92.7513 47.2722 92.9313C47.6134 93.105 47.8677 93.3407 48.0352 93.6385C48.2028 93.9363 48.2865 94.2775 48.2865 94.6622C48.2865 95.022 48.2059 95.3539 48.0446 95.6579C47.8833 95.9557 47.632 96.1976 47.2908 96.3838C46.9496 96.5637 46.5122 96.6536 45.9786 96.6536H44.7503V99.1755H43.6335ZM44.7503 95.7416H45.9135C46.354 95.7416 46.6704 95.6455 46.8627 95.4532C47.055 95.2546 47.1512 94.991 47.1512 94.6622C47.1512 94.3209 47.055 94.0542 46.8627 93.8619C46.6704 93.6695 46.354 93.5734 45.9135 93.5734H44.7503V95.7416ZM48.383 99.1755L50.7653 92.6614H52.0123L54.3946 99.1755H53.2128L51.3795 93.9642L49.5462 99.1755H48.383ZM49.4439 97.6401L49.7417 96.756H52.9522L53.25 97.6401H49.4439ZM55.5699 99.1755V92.6614H57.9056C58.4206 92.6614 58.8455 92.7513 59.1806 92.9313C59.5218 93.105 59.773 93.3407 59.9343 93.6385C60.1018 93.9301 60.1856 94.262 60.1856 94.6342C60.1856 94.9817 60.1049 95.3043 59.9436 95.6021C59.7823 95.8998 59.5311 96.1387 59.1899 96.3186C58.8486 96.4985 58.4113 96.5885 57.8777 96.5885H56.6866V99.1755H55.5699ZM58.9665 99.1755L57.5985 96.3H58.8083L60.2414 99.1755H58.9665ZM56.6866 95.7603H57.8312C58.2469 95.7603 58.5509 95.661 58.7432 95.4625C58.9417 95.2577 59.041 94.991 59.041 94.6622C59.041 94.3396 58.9448 94.0821 58.7525 93.8898C58.5602 93.6912 58.2531 93.592 57.8312 93.592H56.6866V95.7603ZM63.1367 99.1755V93.5641H61.2196V92.6614H66.1611V93.5641H64.2441V99.1755H63.1367ZM67.3608 99.1755V92.6614H68.4775L71.6136 97.3702V92.6614H72.7303V99.1755H71.6136L68.4775 94.476V99.1755H67.3608ZM74.3195 99.1755V92.6614H78.5258V93.5641H75.4362V95.4346H78.2466V96.3186H75.4362V98.2729H78.5258V99.1755H74.3195ZM79.9787 99.1755V92.6614H82.3144C82.8294 92.6614 83.2543 92.7513 83.5894 92.9313C83.9306 93.105 84.1818 93.3407 84.3431 93.6385C84.5106 93.9301 84.5944 94.262 84.5944 94.6342C84.5944 94.9817 84.5137 95.3043 84.3524 95.6021C84.1911 95.8998 83.9399 96.1387 83.5987 96.3186C83.2574 96.4985 82.8201 96.5885 82.2865 96.5885H81.0954V99.1755H79.9787ZM83.3753 99.1755L82.0073 96.3H83.2171L84.6502 99.1755H83.3753ZM81.0954 95.7603H82.24C82.6557 95.7603 82.9597 95.661 83.152 95.4625C83.3505 95.2577 83.4498 94.991 83.4498 94.6622C83.4498 94.3396 83.3536 94.0821 83.1613 93.8898C82.969 93.6912 82.6619 93.592 82.24 93.592H81.0954V95.7603Z" fill="#686868"/>
<rect x="15.0098" y="56.7" width="96.6385" height="14.3168" fill="#00B894"/>
<path d="M29.9203 66.1521L31.6075 61.5744H32.1895L33.8702 66.1521H33.2882L31.8953 62.2611L30.4958 66.1521H29.9203ZM30.692 64.975L30.8489 64.5303H32.922L33.0789 64.975H30.692ZM34.8188 66.1521V61.5744H36.166C36.7022 61.5744 37.1426 61.6681 37.487 61.8556C37.8358 62.0387 38.093 62.3025 38.2586 62.6469C38.4287 62.987 38.5137 63.3968 38.5137 63.8763C38.5137 64.3472 38.4287 64.7526 38.2586 65.0927C38.093 65.4327 37.8358 65.6943 37.487 65.8774C37.1426 66.0605 36.7022 66.1521 36.166 66.1521H34.8188ZM35.3682 65.6943H36.1529C36.5976 65.6943 36.9507 65.6224 37.2123 65.4785C37.4739 65.3303 37.6614 65.121 37.7747 64.8507C37.8881 64.5761 37.9447 64.2513 37.9447 63.8763C37.9447 63.4927 37.8881 63.1635 37.7747 62.8889C37.6614 62.6142 37.4739 62.4028 37.2123 62.2545C36.9507 62.1063 36.5976 62.0322 36.1529 62.0322H35.3682V65.6943ZM40.7772 66.1521L39.0573 61.5744H39.6524L41.0977 65.5701L42.556 61.5744H43.138L41.4181 66.1521H40.7772ZM43.1136 66.1521L44.8008 61.5744H45.3828L47.0635 66.1521H46.4815L45.0885 62.2611L43.6891 66.1521H43.1136ZM43.8853 64.975L44.0422 64.5303H46.1153L46.2722 64.975H43.8853ZM48.0121 66.1521V61.5744H48.5615L51.0007 65.2431V61.5744H51.55V66.1521H51.0007L48.5615 62.4834V66.1521H48.0121ZM54.7832 66.2306C54.3385 66.2306 53.9527 66.1325 53.6257 65.9363C53.3031 65.7357 53.0546 65.4589 52.8802 65.1058C52.7058 64.7483 52.6186 64.3341 52.6186 63.8633C52.6186 63.3924 52.7058 62.9804 52.8802 62.6273C53.0546 62.2698 53.3031 61.9929 53.6257 61.7968C53.9527 61.5962 54.3385 61.4959 54.7832 61.4959C55.3064 61.4959 55.7315 61.6202 56.0584 61.8687C56.3854 62.1172 56.5947 62.4682 56.6862 62.9216H56.0781C56.0083 62.6382 55.8666 62.4115 55.653 62.2414C55.4394 62.0671 55.1494 61.9799 54.7832 61.9799C54.4562 61.9799 54.1729 62.0562 53.9331 62.2087C53.6933 62.357 53.508 62.5728 53.3772 62.8562C53.2464 63.1352 53.181 63.4709 53.181 63.8633C53.181 64.2556 53.2464 64.5935 53.3772 64.8769C53.508 65.1559 53.6933 65.3717 53.9331 65.5243C54.1729 65.6725 54.4562 65.7466 54.7832 65.7466C55.1494 65.7466 55.4394 65.6638 55.653 65.4981C55.8666 65.3281 56.0083 65.1036 56.0781 64.8246H56.6862C56.5947 65.2649 56.3854 65.6093 56.0584 65.8578C55.7315 66.1063 55.3064 66.2306 54.7832 66.2306ZM57.7443 66.1521V61.5744H60.5759V62.0256H58.2936V63.6213H60.3798V64.066H58.2936V65.7009H60.5759V66.1521H57.7443ZM61.7036 66.1521V61.5744H63.0507C63.5869 61.5744 64.0273 61.6681 64.3717 61.8556C64.7205 62.0387 64.9777 62.3025 65.1434 62.6469C65.3134 62.987 65.3984 63.3968 65.3984 63.8763C65.3984 64.3472 65.3134 64.7526 65.1434 65.0927C64.9777 65.4327 64.7205 65.6943 64.3717 65.8774C64.0273 66.0605 63.5869 66.1521 63.0507 66.1521H61.7036ZM62.2529 65.6943H63.0376C63.4823 65.6943 63.8354 65.6224 64.097 65.4785C64.3586 65.3303 64.5461 65.121 64.6594 64.8507C64.7728 64.5761 64.8295 64.2513 64.8295 63.8763C64.8295 63.4927 64.7728 63.1635 64.6594 62.8889C64.5461 62.6142 64.3586 62.4028 64.097 62.2545C63.8354 62.1063 63.4823 62.0322 63.0376 62.0322H62.2529V65.6943ZM68.4661 66.1521V61.5744H69.9571C70.319 61.5744 70.6154 61.6354 70.8465 61.7575C71.0819 61.8752 71.2541 62.0344 71.3631 62.2349C71.4765 62.4355 71.5332 62.6643 71.5332 62.9216C71.5332 63.1701 71.4765 63.3968 71.3631 63.6017C71.2541 63.8022 71.0841 63.9635 70.8531 64.0856C70.622 64.2077 70.3233 64.2687 69.9571 64.2687H69.0154V66.1521H68.4661ZM69.0154 63.8044H69.9506C70.3168 63.8044 70.5784 63.7237 70.7353 63.5624C70.8923 63.4011 70.9708 63.1875 70.9708 62.9216C70.9708 62.6382 70.8923 62.4202 70.7353 62.2676C70.5784 62.1107 70.3168 62.0322 69.9506 62.0322H69.0154V63.8044ZM71.6521 66.1521L73.3393 61.5744H73.9213L75.602 66.1521H75.02L73.627 62.2611L72.2276 66.1521H71.6521ZM72.4238 64.975L72.5807 64.5303H74.6538L74.8107 64.975H72.4238ZM76.5506 66.1521V61.5744H78.0286C78.3861 61.5744 78.6782 61.6354 78.9049 61.7575C79.1316 61.8752 79.2994 62.0344 79.4084 62.2349C79.5174 62.4355 79.5719 62.6622 79.5719 62.915C79.5719 63.1592 79.5152 63.3837 79.4019 63.5886C79.2929 63.7935 79.1229 63.957 78.8918 64.0791C78.6607 64.2011 78.3643 64.2622 78.0024 64.2622H77.1V66.1521H76.5506ZM78.9703 66.1521L77.9632 64.1052H78.5779L79.6177 66.1521H78.9703ZM77.1 63.8306H77.9893C78.3381 63.8306 78.5932 63.7455 78.7545 63.5755C78.9201 63.4055 79.003 63.1875 79.003 62.9216C79.003 62.6513 78.9223 62.4376 78.761 62.2807C78.6041 62.1194 78.3447 62.0387 77.9828 62.0387H77.1V63.8306ZM81.7676 66.1521V62.0256H80.4008V61.5744H83.6837V62.0256H82.3169V66.1521H81.7676ZM84.6224 66.1521V61.5744H85.1717L87.611 65.2431V61.5744H88.1603V66.1521H87.611L85.1717 62.4834V66.1521H84.6224ZM89.4055 66.1521V61.5744H92.2371V62.0256H89.9548V63.6213H92.0409V64.066H89.9548V65.7009H92.2371V66.1521H89.4055ZM93.3647 66.1521V61.5744H94.8426C95.2001 61.5744 95.4922 61.6354 95.7189 61.7575C95.9456 61.8752 96.1135 62.0344 96.2225 62.2349C96.3315 62.4355 96.386 62.6622 96.386 62.915C96.386 63.1592 96.3293 63.3837 96.2159 63.5886C96.1069 63.7935 95.9369 63.957 95.7059 64.0791C95.4748 64.2011 95.1783 64.2622 94.8165 64.2622H93.914V66.1521H93.3647ZM95.7843 66.1521L94.7772 64.1052H95.392L96.4317 66.1521H95.7843ZM93.914 63.8306H94.8034C95.1522 63.8306 95.4072 63.7455 95.5685 63.5755C95.7342 63.4055 95.817 63.1875 95.817 62.9216C95.817 62.6513 95.7364 62.4376 95.5751 62.2807C95.4181 62.1194 95.1587 62.0387 94.7969 62.0387H93.914V63.8306Z" fill="white"/>
</svg>
