<svg width="127" height="127" viewBox="0 0 127 127" fill="none" xmlns="http://www.w3.org/2000/svg">
<path d="M55.8981 4.68529C60.6024 1.96927 66.3983 1.96928 71.1026 4.68529L110.762 27.583C115.467 30.299 118.365 35.3184 118.365 40.7504V86.5457C118.365 91.9777 115.467 96.9971 110.762 99.7132L71.1026 122.611C66.3983 125.327 60.6024 125.327 55.8981 122.611L16.2382 99.7132C11.5339 96.9971 8.63599 91.9777 8.63599 86.5457V40.7504C8.63599 35.3184 11.5339 30.299 16.2382 27.583L55.8981 4.68529Z" fill="white"/>
<path d="M57.4585 11.0535C61.1971 8.89504 65.8032 8.89504 69.5419 11.0535L106.028 32.1186C109.766 34.277 112.069 38.2661 112.069 42.5831V84.7131C112.069 89.0301 109.766 93.0192 106.028 95.1777L69.5419 116.243C65.8032 118.401 61.1971 118.401 57.4585 116.243L20.9728 95.1777C17.2342 93.0192 14.9311 89.0301 14.9311 84.7131V42.5831C14.9311 38.2661 17.2341 34.277 20.9728 32.1186L57.4585 11.0535Z" stroke="#FF6348" stroke-width="1.43168"/>
<path d="M70.3166 28.4346V25.57C70.3166 24.5428 69.5315 23.407 68.5711 23.0479L64.4037 21.4862C63.7106 21.2273 62.5748 21.2273 61.8816 21.4862L57.7142 23.0562C56.7538 23.4154 55.9688 24.5512 55.9688 25.57V31.7752C55.9688 32.7607 56.6202 34.0551 57.4136 34.6481L61.0047 37.3289C61.5893 37.7799 62.366 37.997 63.1427 37.997" stroke="#00B894" stroke-width="1.54689" stroke-linecap="round" stroke-linejoin="round"/>
<path d="M66.4832 36.3267C68.3281 36.3267 69.8238 34.8311 69.8238 32.9861C69.8238 31.1411 68.3281 29.6455 66.4832 29.6455C64.6382 29.6455 63.1426 31.1411 63.1426 32.9861C63.1426 34.8311 64.6382 36.3267 66.4832 36.3267Z" stroke="#00B894" stroke-width="1.54689" stroke-linecap="round" stroke-linejoin="round"/>
<path d="M70.655 37.162H70.6625" stroke="#00B894" stroke-width="1.54689" stroke-linecap="round" stroke-linejoin="round"/>
<path d="M37.982 49.5308V43.5177H39.9233C40.622 43.5177 41.1975 43.6408 41.6499 43.8871C42.1081 44.1333 42.446 44.4827 42.6636 44.9351C42.8869 45.3817 42.9986 45.9143 42.9986 46.5328C42.9986 47.1399 42.8869 47.6696 42.6636 48.122C42.446 48.5687 42.1081 48.9151 41.6499 49.1614C41.1975 49.4076 40.622 49.5308 39.9233 49.5308H37.982ZM39.0128 48.6546H39.8718C40.3929 48.6546 40.8024 48.5715 41.1002 48.4055C41.4037 48.2337 41.6184 47.9903 41.7444 47.6753C41.8761 47.3546 41.942 46.9738 41.942 46.5328C41.942 46.0861 41.8761 45.7053 41.7444 45.3903C41.6184 45.0696 41.4037 44.8234 41.1002 44.6516C40.8024 44.4741 40.3929 44.3853 39.8718 44.3853H39.0128V48.6546ZM45.4139 49.6338C45.0588 49.6338 44.7639 49.5737 44.5291 49.4535C44.2943 49.3332 44.1196 49.1728 44.0051 48.9724C43.8906 48.772 43.8333 48.5544 43.8333 48.3196C43.8333 48.0447 43.902 47.807 44.0395 47.6066C44.1826 47.4061 44.3917 47.2515 44.6665 47.1427C44.9414 47.0282 45.2793 46.9709 45.6802 46.9709H46.7711C46.7711 46.7418 46.7396 46.5529 46.6766 46.404C46.6136 46.2493 46.5163 46.1348 46.3846 46.0604C46.2528 45.9859 46.0839 45.9487 45.8777 45.9487C45.6429 45.9487 45.4425 46.0031 45.2764 46.1119C45.1104 46.215 45.0073 46.3753 44.9672 46.593H43.9536C43.9879 46.2837 44.091 46.0203 44.2628 45.8027C44.4346 45.5793 44.6608 45.4075 44.9414 45.2873C45.2278 45.1613 45.5399 45.0983 45.8777 45.0983C46.2843 45.0983 46.6308 45.1699 46.9171 45.313C47.2035 45.4505 47.4211 45.6509 47.57 45.9143C47.7246 46.172 47.8019 46.4841 47.8019 46.8507V49.5308H46.9257L46.8226 48.835C46.7654 48.9495 46.6909 49.0554 46.5993 49.1528C46.5134 49.2502 46.4132 49.3361 46.2987 49.4105C46.1841 49.4792 46.0524 49.5336 45.9035 49.5737C45.7603 49.6138 45.5971 49.6338 45.4139 49.6338ZM45.6458 48.8178C45.8119 48.8178 45.9579 48.7892 46.0839 48.7319C46.2156 48.6689 46.3273 48.583 46.4189 48.4742C46.5163 48.3596 46.5907 48.2337 46.6423 48.0962C46.6938 47.9588 46.7282 47.8127 46.7453 47.6581V47.6409H45.7918C45.5914 47.6409 45.4253 47.6667 45.2936 47.7183C45.1619 47.7641 45.0674 47.8328 45.0101 47.9244C44.9529 48.016 44.9242 48.122 44.9242 48.2422C44.9242 48.3625 44.9529 48.4656 45.0101 48.5515C45.0674 48.6374 45.1504 48.7032 45.2592 48.7491C45.3681 48.7949 45.4969 48.8178 45.6458 48.8178ZM50.7174 49.5308C50.4254 49.5308 50.1705 49.4849 49.9529 49.3933C49.741 49.3017 49.575 49.1499 49.4547 48.938C49.3344 48.7262 49.2743 48.4398 49.2743 48.079V46.069H48.5356V45.2014H49.2743L49.3946 44.0589H50.3051V45.2014H51.482V46.069H50.3051V48.079C50.3051 48.2967 50.3509 48.4484 50.4426 48.5343C50.5399 48.6145 50.7003 48.6546 50.9236 48.6546H51.4562V49.5308H50.7174ZM53.8949 49.6338C53.5399 49.6338 53.2449 49.5737 53.0101 49.4535C52.7753 49.3332 52.6007 49.1728 52.4861 48.9724C52.3716 48.772 52.3143 48.5544 52.3143 48.3196C52.3143 48.0447 52.3831 47.807 52.5205 47.6066C52.6637 47.4061 52.8727 47.2515 53.1476 47.1427C53.4225 47.0282 53.7603 46.9709 54.1612 46.9709H55.2521C55.2521 46.7418 55.2206 46.5529 55.1577 46.404C55.0947 46.2493 54.9973 46.1348 54.8656 46.0604C54.7339 45.9859 54.5649 45.9487 54.3588 45.9487C54.124 45.9487 53.9235 46.0031 53.7575 46.1119C53.5914 46.215 53.4883 46.3753 53.4482 46.593H52.4346C52.469 46.2837 52.572 46.0203 52.7438 45.8027C52.9156 45.5793 53.1418 45.4075 53.4225 45.2873C53.7088 45.1613 54.0209 45.0983 54.3588 45.0983C54.7654 45.0983 55.1118 45.1699 55.3982 45.313C55.6845 45.4505 55.9021 45.6509 56.051 45.9143C56.2056 46.172 56.283 46.4841 56.283 46.8507V49.5308H55.4068L55.3037 48.835C55.2464 48.9495 55.172 49.0554 55.0803 49.1528C54.9944 49.2502 54.8942 49.3361 54.7797 49.4105C54.6652 49.4792 54.5334 49.5336 54.3845 49.5737C54.2414 49.6138 54.0782 49.6338 53.8949 49.6338ZM54.1268 48.8178C54.2929 48.8178 54.4389 48.7892 54.5649 48.7319C54.6966 48.6689 54.8083 48.583 54.8999 48.4742C54.9973 48.3596 55.0717 48.2337 55.1233 48.0962C55.1748 47.9588 55.2092 47.8127 55.2264 47.6581V47.6409H54.2729C54.0724 47.6409 53.9064 47.6667 53.7746 47.7183C53.6429 47.7641 53.5484 47.8328 53.4912 47.9244C53.4339 48.016 53.4053 48.122 53.4053 48.2422C53.4053 48.3625 53.4339 48.4656 53.4912 48.5515C53.5484 48.6374 53.6315 48.7032 53.7403 48.7491C53.8491 48.7949 53.9779 48.8178 54.1268 48.8178ZM59.5159 49.5308V43.5177H61.6806C62.1617 43.5177 62.5597 43.6007 62.8746 43.7668C63.1896 43.9272 63.4244 44.1448 63.579 44.4197C63.7336 44.6945 63.811 45.0095 63.811 45.3646C63.811 45.6967 63.7365 46.0031 63.5876 46.2837C63.4387 46.5586 63.2068 46.7819 62.8918 46.9537C62.5768 47.1198 62.1731 47.2028 61.6806 47.2028H60.5467V49.5308H59.5159ZM60.5467 46.361H61.6205C62.0271 46.361 62.3191 46.2723 62.4967 46.0947C62.6742 45.9115 62.763 45.6681 62.763 45.3646C62.763 45.0496 62.6742 44.8033 62.4967 44.6258C62.3191 44.4483 62.0271 44.3595 61.6205 44.3595H60.5467V46.361ZM64.6658 49.5308V45.2014H65.5849L65.6794 46.0088C65.7825 45.8198 65.9114 45.6595 66.066 45.5278C66.2206 45.3903 66.401 45.2844 66.6072 45.2099C66.8191 45.1355 67.051 45.0983 67.303 45.0983V46.1892H66.9422C66.7704 46.1892 66.6072 46.2121 66.4525 46.2579C66.2979 46.298 66.1633 46.3667 66.0488 46.4641C65.94 46.5557 65.8541 46.6846 65.7911 46.8507C65.7281 47.011 65.6966 47.2143 65.6966 47.4605V49.5308H64.6658ZM68.123 49.5308V45.2014H69.1538V49.5308H68.123ZM68.6384 44.5141C68.4494 44.5141 68.2919 44.4569 68.1659 44.3423C68.0457 44.2221 67.9855 44.0761 67.9855 43.9043C67.9855 43.7267 68.0457 43.5836 68.1659 43.4747C68.2919 43.3602 68.4494 43.3029 68.6384 43.3029C68.8274 43.3029 68.982 43.3602 69.1023 43.4747C69.2282 43.5836 69.2912 43.7267 69.2912 43.9043C69.2912 44.0761 69.2282 44.2221 69.1023 44.3423C68.982 44.4569 68.8274 44.5141 68.6384 44.5141ZM71.5304 49.5308L69.9327 45.2014H71.015L72.1575 48.5515L73.3 45.2014H74.3652L72.7674 49.5308H71.5304ZM76.2929 49.6338C75.9378 49.6338 75.6429 49.5737 75.4081 49.4535C75.1733 49.3332 74.9987 49.1728 74.8841 48.9724C74.7696 48.772 74.7123 48.5544 74.7123 48.3196C74.7123 48.0447 74.781 47.807 74.9185 47.6066C75.0616 47.4061 75.2707 47.2515 75.5456 47.1427C75.8204 47.0282 76.1583 46.9709 76.5592 46.9709H77.6501C77.6501 46.7418 77.6186 46.5529 77.5556 46.404C77.4926 46.2493 77.3953 46.1348 77.2636 46.0604C77.1319 45.9859 76.9629 45.9487 76.7568 45.9487C76.522 45.9487 76.3215 46.0031 76.1555 46.1119C75.9894 46.215 75.8863 46.3753 75.8462 46.593H74.8326C74.8669 46.2837 74.97 46.0203 75.1418 45.8027C75.3136 45.5793 75.5398 45.4075 75.8204 45.2873C76.1068 45.1613 76.4189 45.0983 76.7568 45.0983C77.1634 45.0983 77.5098 45.1699 77.7962 45.313C78.0825 45.4505 78.3001 45.6509 78.449 45.9143C78.6036 46.172 78.6809 46.4841 78.6809 46.8507V49.5308H77.8048L77.7017 48.835C77.6444 48.9495 77.57 49.0554 77.4783 49.1528C77.3924 49.2502 77.2922 49.3361 77.1777 49.4105C77.0631 49.4792 76.9314 49.5336 76.7825 49.5737C76.6394 49.6138 76.4761 49.6338 76.2929 49.6338ZM76.5248 48.8178C76.6909 48.8178 76.8369 48.7892 76.9629 48.7319C77.0946 48.6689 77.2063 48.583 77.2979 48.4742C77.3953 48.3596 77.4697 48.2337 77.5213 48.0962C77.5728 47.9588 77.6072 47.8127 77.6244 47.6581V47.6409H76.6709C76.4704 47.6409 76.3043 47.6667 76.1726 47.7183C76.0409 47.7641 75.9464 47.8328 75.8892 47.9244C75.8319 48.016 75.8033 48.122 75.8033 48.2422C75.8033 48.3625 75.8319 48.4656 75.8892 48.5515C75.9464 48.6374 76.0295 48.7032 76.1383 48.7491C76.2471 48.7949 76.3759 48.8178 76.5248 48.8178ZM81.8354 49.6338C81.4116 49.6338 81.0308 49.5394 80.6929 49.3504C80.3607 49.1557 80.1002 48.8894 79.9112 48.5515C79.7279 48.2079 79.6363 47.8185 79.6363 47.3832C79.6363 46.9308 79.7279 46.5357 79.9112 46.1978C80.1002 45.8542 80.3607 45.585 80.6929 45.3903C81.0308 45.1956 81.4145 45.0983 81.844 45.0983C82.3823 45.0983 82.8347 45.2414 83.2012 45.5278C83.5677 45.8084 83.8025 46.1949 83.9056 46.6874H82.8232C82.766 46.4698 82.6457 46.298 82.4625 46.172C82.2849 46.046 82.073 45.9831 81.8268 45.9831C81.6149 45.9831 81.4202 46.0375 81.2427 46.1463C81.0709 46.2551 80.9334 46.4126 80.8303 46.6187C80.733 46.8249 80.6843 47.074 80.6843 47.3661C80.6843 47.5894 80.7129 47.787 80.7702 47.9588C80.8275 48.1306 80.9077 48.2766 81.0107 48.3969C81.1195 48.5114 81.2427 48.6002 81.3801 48.6632C81.5175 48.7262 81.6664 48.7577 81.8268 48.7577C81.9929 48.7577 82.1418 48.7319 82.2735 48.6803C82.4109 48.6231 82.5255 48.54 82.6171 48.4312C82.7144 48.3224 82.7832 48.1936 82.8232 48.0447H83.9056C83.8025 48.5257 83.5677 48.9123 83.2012 49.2043C82.8347 49.4907 82.3794 49.6338 81.8354 49.6338ZM85.4235 51.4206L86.4801 49.0497H86.2224L84.4958 45.2014H85.6211L86.9096 48.1392L88.1294 45.2014H89.2203L86.5144 51.4206H85.4235Z" fill="#00B894"/>
<path d="M44.6194 86.1755L47.0017 79.6614H48.2487L50.631 86.1755H49.4491L47.6159 80.9642L45.7826 86.1755H44.6194ZM45.6802 84.6401L45.978 83.756H49.1886L49.4864 84.6401H45.6802ZM54.2719 86.2872C53.6577 86.2872 53.118 86.1476 52.6527 85.8684C52.1936 85.5893 51.8369 85.2015 51.5825 84.7052C51.3282 84.2027 51.201 83.6164 51.201 82.9464C51.201 82.2826 51.3313 81.6963 51.5918 81.1876C51.8524 80.6726 52.2246 80.2725 52.7085 79.9871C53.1986 79.6955 53.7787 79.5497 54.4487 79.5497C55.2056 79.5497 55.8322 79.7327 56.3285 80.0988C56.8311 80.4586 57.1568 80.9611 57.3057 81.6063H56.0494C55.9563 81.2837 55.7733 81.0325 55.5003 80.8525C55.2273 80.6726 54.8737 80.5827 54.4394 80.5827C53.999 80.5827 53.6205 80.6788 53.3041 80.8712C52.9939 81.0573 52.7551 81.3302 52.5876 81.6901C52.4263 82.0437 52.3456 82.4656 52.3456 82.9557C52.3456 83.4458 52.4263 83.8677 52.5876 84.2213C52.7551 84.5749 52.9908 84.8448 53.2948 85.0309C53.5988 85.2108 53.9555 85.3008 54.365 85.3008C54.973 85.3008 55.4321 85.1302 55.7423 84.789C56.0525 84.4477 56.2355 84.0042 56.2913 83.4582H54.6069V82.6114H57.4173V86.1755H56.3937L56.3006 85.2822C56.1579 85.4931 55.9935 85.6761 55.8074 85.8312C55.6213 85.9801 55.4011 86.0949 55.1467 86.1755C54.8985 86.25 54.6069 86.2872 54.2719 86.2872ZM58.9013 86.1755V79.6614H63.1075V80.5641H60.018V82.4346H62.8284V83.3186H60.018V85.2729H63.1075V86.1755H58.9013ZM64.5604 86.1755V79.6614H65.6771L68.8132 84.3702V79.6614H69.93V86.1755H68.8132L65.6771 81.476V86.1755H64.5604ZM74.4133 86.2872C73.7681 86.2872 73.2097 86.1476 72.7382 85.8684C72.2729 85.5831 71.9131 85.1891 71.6588 84.6866C71.4106 84.1779 71.2865 83.5916 71.2865 82.9278C71.2865 82.2577 71.4106 81.6715 71.6588 81.1689C71.9131 80.6602 72.2729 80.2632 72.7382 79.9778C73.2097 79.6924 73.7681 79.5497 74.4133 79.5497C75.1888 79.5497 75.8216 79.742 76.3117 80.1267C76.8018 80.5051 77.112 81.0418 77.2423 81.7366H76.0139C75.9271 81.3706 75.7503 81.0821 75.4835 80.8712C75.2167 80.6602 74.8569 80.5548 74.404 80.5548C73.9945 80.5548 73.6409 80.6509 73.3431 80.8432C73.0515 81.0294 72.8251 81.3023 72.6638 81.6622C72.5087 82.0158 72.4311 82.4377 72.4311 82.9278C72.4311 83.4179 72.5087 83.8397 72.6638 84.1934C72.8251 84.5408 73.0515 84.8107 73.3431 85.003C73.6409 85.1891 73.9945 85.2822 74.404 85.2822C74.8569 85.2822 75.2167 85.186 75.4835 84.9937C75.7503 84.7952 75.9271 84.5222 76.0139 84.1748H77.2423C77.1182 84.8324 76.808 85.3504 76.3117 85.7289C75.8216 86.1011 75.1888 86.2872 74.4133 86.2872ZM79.9435 86.1755V83.8304L77.7752 79.6614H79.0408L80.6321 82.9743H80.3902L81.9815 79.6614H83.2378L81.0602 83.8304V86.1755H79.9435ZM43.4856 99.1755V92.6614H45.8307C46.3518 92.6614 46.783 92.7513 47.1242 92.9313C47.4654 93.105 47.7198 93.3407 47.8873 93.6385C48.0548 93.9363 48.1386 94.2775 48.1386 94.6622C48.1386 95.022 48.0579 95.3539 47.8966 95.6579C47.7353 95.9557 47.484 96.1976 47.1428 96.3838C46.8016 96.5637 46.3642 96.6536 45.8307 96.6536H44.6023V99.1755H43.4856ZM44.6023 95.7416H45.7655C46.206 95.7416 46.5224 95.6455 46.7148 95.4532C46.9071 95.2546 47.0032 94.991 47.0032 94.6622C47.0032 94.3209 46.9071 94.0542 46.7148 93.8619C46.5224 93.6695 46.206 93.5734 45.7655 93.5734H44.6023V95.7416ZM48.235 99.1755L50.6174 92.6614H51.8643L54.2467 99.1755H53.0648L51.2315 93.9642L49.3983 99.1755H48.235ZM49.2959 97.6401L49.5937 96.756H52.8042L53.102 97.6401H49.2959ZM55.4219 99.1755V92.6614H57.7577C58.2726 92.6614 58.6976 92.7513 59.0326 92.9313C59.3738 93.105 59.6251 93.3407 59.7864 93.6385C59.9539 93.9301 60.0376 94.262 60.0376 94.6342C60.0376 94.9817 59.957 95.3043 59.7957 95.6021C59.6344 95.8998 59.3831 96.1387 59.0419 96.3186C58.7007 96.4985 58.2633 96.5885 57.7298 96.5885H56.5386V99.1755H55.4219ZM58.8186 99.1755L57.4506 96.3H58.6604L60.0935 99.1755H58.8186ZM56.5386 95.7603H57.6832C58.0989 95.7603 58.4029 95.661 58.5952 95.4625C58.7938 95.2577 58.893 94.991 58.893 94.6622C58.893 94.3396 58.7969 94.0821 58.6045 93.8898C58.4122 93.6912 58.1051 93.592 57.6832 93.592H56.5386V95.7603ZM62.9887 99.1755V93.5641H61.0717V92.6614H66.0131V93.5641H64.0961V99.1755H62.9887ZM67.2128 99.1755V92.6614H68.3295L71.4656 97.3702V92.6614H72.5823V99.1755H71.4656L68.3295 94.476V99.1755H67.2128ZM74.1715 99.1755V92.6614H78.3778V93.5641H75.2882V95.4346H78.0986V96.3186H75.2882V98.2729H78.3778V99.1755H74.1715ZM79.8307 99.1755V92.6614H82.1665C82.6814 92.6614 83.1064 92.7513 83.4414 92.9313C83.7826 93.105 84.0339 93.3407 84.1952 93.6385C84.3627 93.9301 84.4464 94.262 84.4464 94.6342C84.4464 94.9817 84.3658 95.3043 84.2045 95.6021C84.0432 95.8998 83.7919 96.1387 83.4507 96.3186C83.1095 96.4985 82.6721 96.5885 82.1386 96.5885H80.9474V99.1755H79.8307ZM83.2274 99.1755L81.8594 96.3H83.0692L84.5023 99.1755H83.2274ZM80.9474 95.7603H82.092C82.5077 95.7603 82.8117 95.661 83.004 95.4625C83.2026 95.2577 83.3018 94.991 83.3018 94.6622C83.3018 94.3396 83.2057 94.0821 83.0133 93.8898C82.821 93.6912 82.5139 93.592 82.092 93.592H80.9474V95.7603Z" fill="#686868"/>
<rect x="14.8623" y="56.7" width="96.6385" height="14.3168" fill="#FF6348"/>
<path d="M49.2212 66.2306C48.7765 66.2306 48.3906 66.1325 48.0637 65.9363C47.741 65.7357 47.4925 65.4589 47.3182 65.1058C47.1438 64.7483 47.0566 64.3341 47.0566 63.8633C47.0566 63.3924 47.1438 62.9804 47.3182 62.6273C47.4925 62.2698 47.741 61.9929 48.0637 61.7968C48.3906 61.5962 48.7765 61.4959 49.2212 61.4959C49.7443 61.4959 50.1694 61.6202 50.4964 61.8687C50.8234 62.1172 51.0326 62.4682 51.1242 62.9216H50.516C50.4462 62.6382 50.3046 62.4115 50.0909 62.2414C49.8773 62.0671 49.5874 61.9799 49.2212 61.9799C48.8942 61.9799 48.6108 62.0562 48.371 62.2087C48.1312 62.357 47.946 62.5728 47.8152 62.8562C47.6844 63.1352 47.619 63.4709 47.619 63.8633C47.619 64.2556 47.6844 64.5935 47.8152 64.8769C47.946 65.1559 48.1312 65.3717 48.371 65.5243C48.6108 65.6725 48.8942 65.7466 49.2212 65.7466C49.5874 65.7466 49.8773 65.6638 50.0909 65.4981C50.3046 65.3281 50.4462 65.1036 50.516 64.8246H51.1242C51.0326 65.2649 50.8234 65.6093 50.4964 65.8578C50.1694 66.1063 49.7443 66.2306 49.2212 66.2306ZM52.1823 66.1521V61.5744H55.0139V62.0256H52.7316V63.6213H54.8177V64.066H52.7316V65.7009H55.0139V66.1521H52.1823ZM56.1415 66.1521V61.5744H57.6194C57.9769 61.5744 58.269 61.6354 58.4957 61.7575C58.7224 61.8752 58.8903 62.0344 58.9993 62.2349C59.1083 62.4355 59.1628 62.6622 59.1628 62.915C59.1628 63.1592 59.1061 63.3837 58.9927 63.5886C58.8837 63.7935 58.7137 63.957 58.4827 64.0791C58.2516 64.2011 57.9551 64.2622 57.5933 64.2622H56.6908V66.1521H56.1415ZM58.5611 66.1521L57.554 64.1052H58.1688L59.2085 66.1521H58.5611ZM56.6908 63.8306H57.5802C57.929 63.8306 58.184 63.7455 58.3453 63.5755C58.511 63.4055 58.5938 63.1875 58.5938 62.9216C58.5938 62.6513 58.5132 62.4376 58.3519 62.2807C58.1949 62.1194 57.9355 62.0387 57.5737 62.0387H56.6908V63.8306ZM61.3584 66.1521V62.0256H59.9917V61.5744H63.2745V62.0256H61.9077V66.1521H61.3584ZM64.2132 66.1521V61.5744H64.7626V66.1521H64.2132ZM66.0075 66.1521V61.5744H68.7934V62.0256H66.5569V63.6344H68.4599V64.0791H66.5569V66.1521H66.0075ZM69.7688 66.1521V61.5744H70.3181V66.1521H69.7688ZM71.5631 66.1521V61.5744H74.3947V62.0256H72.1124V63.6213H74.1985V64.066H72.1124V65.7009H74.3947V66.1521H71.5631ZM75.5223 66.1521V61.5744H76.8695C77.4057 61.5744 77.846 61.6681 78.1905 61.8556C78.5392 62.0387 78.7965 62.3025 78.9621 62.6469C79.1322 62.987 79.2172 63.3968 79.2172 63.8763C79.2172 64.3472 79.1322 64.7526 78.9621 65.0927C78.7965 65.4327 78.5392 65.6943 78.1905 65.8774C77.846 66.0605 77.4057 66.1521 76.8695 66.1521H75.5223ZM76.0716 65.6943H76.8564C77.3011 65.6943 77.6542 65.6224 77.9158 65.4785C78.1774 65.3303 78.3649 65.121 78.4782 64.8507C78.5916 64.5761 78.6482 64.2513 78.6482 63.8763C78.6482 63.4927 78.5916 63.1635 78.4782 62.8889C78.3649 62.6142 78.1774 62.4028 77.9158 62.2545C77.6542 62.1063 77.3011 62.0322 76.8564 62.0322H76.0716V65.6943Z" fill="white"/>
</svg>
