<svg width="155" height="155" viewBox="0 0 155 155" fill="none" xmlns="http://www.w3.org/2000/svg">
<path d="M68.2 5.36936C73.9549 2.04679 81.0451 2.04679 86.8 5.36936L135.317 33.3806C141.072 36.7032 144.617 42.8436 144.617 49.4887V105.511C144.617 112.156 141.072 118.297 135.317 121.619L86.8 149.631C81.0451 152.953 73.9549 152.953 68.2 149.631L19.683 121.619C13.9282 118.297 10.383 112.156 10.383 105.511V49.4887C10.383 42.8436 13.9282 36.7032 19.683 33.3806L68.2 5.36936Z" fill="white"/>
<path d="M70.109 13.1597C74.6826 10.5192 80.3174 10.5192 84.891 13.1597L129.525 38.9291C134.098 41.5696 136.916 46.4495 136.916 51.7306V103.269C136.916 108.55 134.098 113.43 129.525 116.071L84.891 141.84C80.3174 144.481 74.6826 144.481 70.109 141.84L25.4751 116.071C20.9016 113.43 18.0842 108.55 18.0842 103.269V51.7306C18.0842 46.4495 20.9016 41.5696 25.4751 38.9291L70.109 13.1597Z" stroke="#00B894" stroke-width="1.75141"/>
<path d="M85.8377 34.4225V30.9183C85.8377 29.6616 84.8774 28.2722 83.7025 27.8328L78.6044 25.9223C77.7564 25.6056 76.367 25.6056 75.519 25.9223L70.4209 27.8431C69.246 28.2824 68.2856 29.6718 68.2856 30.9183V38.5092C68.2856 39.7147 69.0825 41.2983 70.0531 42.0237L74.4462 45.3032C75.1614 45.8549 76.1115 46.1205 77.0617 46.1205" stroke="#00B894" stroke-width="1.89235" stroke-linecap="round" stroke-linejoin="round"/>
<path d="M81.1482 44.0771C83.4051 44.0771 85.2348 42.2474 85.2348 39.9904C85.2348 37.7335 83.4051 35.9038 81.1482 35.9038C78.8912 35.9038 77.0615 37.7335 77.0615 39.9904C77.0615 42.2474 78.8912 44.0771 81.1482 44.0771Z" stroke="#00B894" stroke-width="1.89235" stroke-linecap="round" stroke-linejoin="round"/>
<path d="M86.2523 45.0987H86.2615" stroke="#00B894" stroke-width="1.89235" stroke-linecap="round" stroke-linejoin="round"/>
<path d="M46.2827 60.6667V53.3108H48.6576C49.5123 53.3108 50.2164 53.4614 50.7698 53.7627C51.3303 54.0639 51.7436 54.4913 52.0098 55.0447C52.2831 55.5912 52.4197 56.2427 52.4197 56.9993C52.4197 57.7419 52.2831 58.3899 52.0098 58.9434C51.7436 59.4898 51.3303 59.9136 50.7698 60.2149C50.2164 60.5161 49.5123 60.6667 48.6576 60.6667H46.2827ZM47.5437 59.5949H48.5946C49.2321 59.5949 49.733 59.4933 50.0973 59.2901C50.4686 59.08 50.7313 58.7822 50.8854 58.3969C51.0466 58.0046 51.1271 57.5387 51.1271 56.9993C51.1271 56.4528 51.0466 55.987 50.8854 55.6017C50.7313 55.2093 50.4686 54.9081 50.0973 54.6979C49.733 54.4808 49.2321 54.3722 48.5946 54.3722H47.5437V59.5949ZM55.3744 60.7928C54.94 60.7928 54.5792 60.7193 54.292 60.5722C54.0048 60.4251 53.7911 60.2289 53.651 59.9837C53.5109 59.7385 53.4408 59.4723 53.4408 59.1851C53.4408 58.8488 53.5249 58.558 53.693 58.3128C53.8681 58.0677 54.1239 57.8785 54.4601 57.7454C54.7964 57.6053 55.2097 57.5352 55.7001 57.5352H57.0347C57.0347 57.255 56.9962 57.0238 56.9191 56.8417C56.842 56.6525 56.7229 56.5124 56.5618 56.4213C56.4007 56.3303 56.194 56.2847 55.9418 56.2847C55.6546 56.2847 55.4094 56.3513 55.2062 56.4844C55.0031 56.6105 54.877 56.8066 54.8279 57.0728H53.5879C53.63 56.6945 53.7561 56.3723 53.9662 56.1061C54.1764 55.8328 54.4531 55.6227 54.7964 55.4756C55.1467 55.3214 55.5285 55.2444 55.9418 55.2444C56.4392 55.2444 56.8631 55.3319 57.2133 55.5071C57.5636 55.6752 57.8298 55.9204 58.012 56.2427C58.2011 56.5579 58.2957 56.9397 58.2957 57.3881V60.6667H57.2239L57.0977 59.8156C57.0277 59.9557 56.9366 60.0853 56.8245 60.2044C56.7194 60.3235 56.5968 60.4286 56.4567 60.5196C56.3166 60.6037 56.1555 60.6703 55.9733 60.7193C55.7982 60.7683 55.5985 60.7928 55.3744 60.7928ZM55.6581 59.7945C55.8613 59.7945 56.0399 59.7595 56.194 59.6895C56.3552 59.6124 56.4918 59.5073 56.6039 59.3742C56.7229 59.2341 56.814 59.08 56.8771 58.9118C56.9401 58.7437 56.9822 58.5651 57.0032 58.3759V58.3549H55.8367C55.5915 58.3549 55.3884 58.3864 55.2272 58.4495C55.0661 58.5055 54.9505 58.5896 54.8805 58.7017C54.8104 58.8138 54.7754 58.9434 54.7754 59.0905C54.7754 59.2376 54.8104 59.3637 54.8805 59.4688C54.9505 59.5739 55.0521 59.6544 55.1852 59.7105C55.3183 59.7665 55.4759 59.7945 55.6581 59.7945ZM61.8624 60.6667C61.5051 60.6667 61.1933 60.6107 60.9271 60.4986C60.6679 60.3865 60.4647 60.2009 60.3176 59.9417C60.1705 59.6825 60.0969 59.3322 60.0969 58.8908V56.4318H59.1932V55.3705H60.0969L60.2441 53.9728H61.358V55.3705H62.7976V56.4318H61.358V58.8908C61.358 59.157 61.414 59.3427 61.5261 59.4478C61.6452 59.5458 61.8413 59.5949 62.1146 59.5949H62.7661V60.6667H61.8624ZM65.7494 60.7928C65.3151 60.7928 64.9543 60.7193 64.6671 60.5722C64.3798 60.4251 64.1661 60.2289 64.026 59.9837C63.8859 59.7385 63.8159 59.4723 63.8159 59.1851C63.8159 58.8488 63.8999 58.558 64.0681 58.3128C64.2432 58.0677 64.4989 57.8785 64.8352 57.7454C65.1715 57.6053 65.5848 57.5352 66.0752 57.5352H67.4098C67.4098 57.255 67.3712 57.0238 67.2942 56.8417C67.2171 56.6525 67.098 56.5124 66.9369 56.4213C66.7758 56.3303 66.5691 56.2847 66.3169 56.2847C66.0297 56.2847 65.7845 56.3513 65.5813 56.4844C65.3781 56.6105 65.252 56.8066 65.203 57.0728H63.963C64.005 56.6945 64.1311 56.3723 64.3413 56.1061C64.5515 55.8328 64.8282 55.6227 65.1715 55.4756C65.5217 55.3214 65.9035 55.2444 66.3169 55.2444C66.8143 55.2444 67.2381 55.3319 67.5884 55.5071C67.9387 55.6752 68.2049 55.9204 68.3871 56.2427C68.5762 56.5579 68.6708 56.9397 68.6708 57.3881V60.6667H67.5989L67.4728 59.8156C67.4028 59.9557 67.3117 60.0853 67.1996 60.2044C67.0945 60.3235 66.9719 60.4286 66.8318 60.5196C66.6917 60.6037 66.5306 60.6703 66.3484 60.7193C66.1733 60.7683 65.9736 60.7928 65.7494 60.7928ZM66.0332 59.7945C66.2363 59.7945 66.415 59.7595 66.5691 59.6895C66.7302 59.6124 66.8668 59.5073 66.9789 59.3742C67.098 59.2341 67.1891 59.08 67.2521 58.9118C67.3152 58.7437 67.3572 58.5651 67.3782 58.3759V58.3549H66.2118C65.9666 58.3549 65.7634 58.3864 65.6023 58.4495C65.4412 58.5055 65.3256 58.5896 65.2555 58.7017C65.1855 58.8138 65.1504 58.9434 65.1504 59.0905C65.1504 59.2376 65.1855 59.3637 65.2555 59.4688C65.3256 59.5739 65.4272 59.6544 65.5603 59.7105C65.6934 59.7665 65.851 59.7945 66.0332 59.7945ZM72.6257 60.6667V53.3108H75.2739C75.8624 53.3108 76.3492 53.4124 76.7346 53.6156C77.1199 53.8117 77.4071 54.0779 77.5963 54.4142C77.7854 54.7505 77.88 55.1358 77.88 55.5701C77.88 55.9765 77.7889 56.3513 77.6068 56.6945C77.4246 57.0308 77.1409 57.304 76.7556 57.5142C76.3703 57.7174 75.8764 57.819 75.2739 57.819H73.8868V60.6667H72.6257ZM73.8868 56.7891H75.2003C75.6977 56.7891 76.055 56.6805 76.2722 56.4634C76.4894 56.2392 76.5979 55.9414 76.5979 55.5701C76.5979 55.1848 76.4894 54.8836 76.2722 54.6664C76.055 54.4492 75.6977 54.3406 75.2003 54.3406H73.8868V56.7891ZM78.9257 60.6667V55.3705H80.0501L80.1657 56.3583C80.2918 56.1271 80.4495 55.9309 80.6386 55.7698C80.8278 55.6017 81.0485 55.4721 81.3007 55.381C81.5599 55.2899 81.8436 55.2444 82.1518 55.2444V56.579H81.7105C81.5003 56.579 81.3007 56.607 81.1115 56.663C80.9224 56.7121 80.7577 56.7961 80.6176 56.9152C80.4845 57.0273 80.3794 57.1849 80.3024 57.3881C80.2253 57.5843 80.1868 57.833 80.1868 58.1342V60.6667H78.9257ZM83.155 60.6667V55.3705H84.416V60.6667H83.155ZM83.7855 54.5298C83.5543 54.5298 83.3617 54.4597 83.2075 54.3196C83.0604 54.1725 82.9869 53.9939 82.9869 53.7837C82.9869 53.5665 83.0604 53.3914 83.2075 53.2583C83.3617 53.1182 83.5543 53.0481 83.7855 53.0481C84.0167 53.0481 84.2058 53.1182 84.353 53.2583C84.5071 53.3914 84.5841 53.5665 84.5841 53.7837C84.5841 53.9939 84.5071 54.1725 84.353 54.3196C84.2058 54.4597 84.0167 54.5298 83.7855 54.5298ZM87.3234 60.6667L85.3688 55.3705H86.6929L88.0905 59.4688L89.4881 55.3705H90.7912L88.8366 60.6667H87.3234ZM93.1494 60.7928C92.7151 60.7928 92.3543 60.7193 92.0671 60.5722C91.7798 60.4251 91.5662 60.2289 91.4261 59.9837C91.2859 59.7385 91.2159 59.4723 91.2159 59.1851C91.2159 58.8488 91.3 58.558 91.4681 58.3128C91.6432 58.0677 91.8989 57.8785 92.2352 57.7454C92.5715 57.6053 92.9848 57.5352 93.4752 57.5352H94.8098C94.8098 57.255 94.7713 57.0238 94.6942 56.8417C94.6171 56.6525 94.498 56.5124 94.3369 56.4213C94.1758 56.3303 93.9691 56.2847 93.7169 56.2847C93.4297 56.2847 93.1845 56.3513 92.9813 56.4844C92.7782 56.6105 92.652 56.8066 92.603 57.0728H91.363C91.405 56.6945 91.5311 56.3723 91.7413 56.1061C91.9515 55.8328 92.2282 55.6227 92.5715 55.4756C92.9218 55.3214 93.3036 55.2444 93.7169 55.2444C94.2143 55.2444 94.6382 55.3319 94.9884 55.5071C95.3387 55.6752 95.6049 55.9204 95.7871 56.2427C95.9762 56.5579 96.0708 56.9397 96.0708 57.3881V60.6667H94.9989L94.8728 59.8156C94.8028 59.9557 94.7117 60.0853 94.5996 60.2044C94.4945 60.3235 94.3719 60.4286 94.2318 60.5196C94.0917 60.6037 93.9306 60.6703 93.7484 60.7193C93.5733 60.7683 93.3736 60.7928 93.1494 60.7928ZM93.4332 59.7945C93.6363 59.7945 93.815 59.7595 93.9691 59.6895C94.1302 59.6124 94.2669 59.5073 94.3789 59.3742C94.498 59.2341 94.5891 59.08 94.6522 58.9118C94.7152 58.7437 94.7572 58.5651 94.7783 58.3759V58.3549H93.6118C93.3666 58.3549 93.1635 58.3864 93.0023 58.4495C92.8412 58.5055 92.7256 58.5896 92.6556 58.7017C92.5855 58.8138 92.5505 58.9434 92.5505 59.0905C92.5505 59.2376 92.5855 59.3637 92.6556 59.4688C92.7256 59.5739 92.8272 59.6544 92.9603 59.7105C93.0934 59.7665 93.251 59.7945 93.4332 59.7945ZM99.9297 60.7928C99.4113 60.7928 98.9454 60.6773 98.5321 60.4461C98.1258 60.2079 97.807 59.8821 97.5758 59.4688C97.3516 59.0484 97.2395 58.5721 97.2395 58.0396C97.2395 57.4862 97.3516 57.0028 97.5758 56.5895C97.807 56.1691 98.1258 55.8399 98.5321 55.6017C98.9454 55.3635 99.4148 55.2444 99.9402 55.2444C100.599 55.2444 101.152 55.4195 101.601 55.7698C102.049 56.1131 102.336 56.586 102.462 57.1884H101.138C101.068 56.9222 100.921 56.7121 100.697 56.5579C100.48 56.4038 100.22 56.3267 99.9192 56.3267C99.66 56.3267 99.4218 56.3933 99.2046 56.5264C98.9945 56.6595 98.8263 56.8522 98.7002 57.1044C98.5811 57.3566 98.5216 57.6613 98.5216 58.0186C98.5216 58.2918 98.5566 58.5335 98.6267 58.7437C98.6967 58.9539 98.7948 59.1325 98.9209 59.2796C99.054 59.4197 99.2046 59.5283 99.3728 59.6054C99.5409 59.6825 99.723 59.721 99.9192 59.721C100.122 59.721 100.305 59.6895 100.466 59.6264C100.634 59.5564 100.774 59.4548 100.886 59.3217C101.005 59.1886 101.089 59.0309 101.138 58.8488H102.462C102.336 59.4373 102.049 59.9101 101.601 60.2674C101.152 60.6177 100.595 60.7928 99.9297 60.7928ZM104.319 62.9786L105.612 60.0783H105.296L103.184 55.3705H104.561L106.137 58.9644L107.629 55.3705H108.964L105.654 62.9786H104.319Z" fill="#00B894"/>
<path d="M54.101 104.825L57.0154 96.856H58.5409L61.4552 104.825H60.0094L57.7667 98.4498L55.5241 104.825H54.101ZM55.3988 102.947L55.7631 101.865H59.6907L60.055 102.947H55.3988ZM65.9093 104.962C65.1579 104.962 64.4976 104.791 63.9284 104.449C63.3668 104.108 62.9304 103.633 62.6192 103.026C62.3081 102.412 62.1525 101.694 62.1525 100.875C62.1525 100.063 62.3119 99.3454 62.6306 98.723C62.9494 98.0931 63.4047 97.6036 63.9967 97.2545C64.5963 96.8978 65.3059 96.7194 66.1256 96.7194C67.0515 96.7194 67.818 96.9433 68.4252 97.3911C69.0399 97.8313 69.4384 98.446 69.6205 99.2353H68.0836C67.9698 98.8407 67.7459 98.5333 67.412 98.3132C67.078 98.0931 66.6454 97.9831 66.1142 97.9831C65.5753 97.9831 65.1124 98.1007 64.7253 98.336C64.3458 98.5637 64.0536 98.8976 63.8487 99.3378C63.6514 99.7704 63.5527 100.286 63.5527 100.886C63.5527 101.486 63.6514 102.002 63.8487 102.434C64.0536 102.867 64.342 103.197 64.7139 103.425C65.0858 103.645 65.5222 103.755 66.0231 103.755C66.7669 103.755 67.3285 103.546 67.708 103.129C68.0874 102.711 68.3113 102.169 68.3796 101.501H66.3191V100.465H69.7571V104.825H68.5049L68.391 103.732C68.2165 103.99 68.0153 104.214 67.7877 104.404C67.56 104.586 67.2905 104.726 66.9794 104.825C66.6758 104.916 66.3191 104.962 65.9093 104.962ZM71.5725 104.825V96.856H76.7181V97.9603H72.9386V100.249H76.3766V101.33H72.9386V103.721H76.7181V104.825H71.5725ZM78.4955 104.825V96.856H79.8616L83.698 102.616V96.856H85.0641V104.825H83.698L79.8616 99.0759V104.825H78.4955ZM90.5487 104.962C89.7594 104.962 89.0764 104.791 88.4996 104.449C87.9304 104.1 87.4902 103.618 87.179 103.003C86.8754 102.381 86.7236 101.664 86.7236 100.852C86.7236 100.032 86.8754 99.315 87.179 98.7003C87.4902 98.0779 87.9304 97.5922 88.4996 97.2431C89.0764 96.894 89.7594 96.7194 90.5487 96.7194C91.4974 96.7194 92.2715 96.9547 92.8711 97.4252C93.4707 97.8882 93.8501 98.5447 94.0095 99.3947H92.5068C92.4006 98.9469 92.1843 98.594 91.8579 98.336C91.5316 98.0779 91.0914 97.9489 90.5373 97.9489C90.0364 97.9489 89.6038 98.0665 89.2395 98.3018C88.8828 98.5295 88.6058 98.8634 88.4085 99.3036C88.2188 99.7362 88.1239 100.252 88.1239 100.852C88.1239 101.451 88.2188 101.968 88.4085 102.4C88.6058 102.825 88.8828 103.155 89.2395 103.391C89.6038 103.618 90.0364 103.732 90.5373 103.732C91.0914 103.732 91.5316 103.614 91.8579 103.379C92.1843 103.136 92.4006 102.802 92.5068 102.377H94.0095C93.8577 103.182 93.4783 103.816 92.8711 104.279C92.2715 104.734 91.4974 104.962 90.5487 104.962ZM97.314 104.825V101.956L94.6614 96.856H96.2097L98.1564 100.909H97.8604L99.8071 96.856H101.344L98.6801 101.956V104.825H97.314ZM52.7141 120.825V112.856H55.5829C56.2204 112.856 56.7479 112.966 57.1653 113.186C57.5827 113.399 57.8939 113.687 58.0988 114.051C58.3037 114.416 58.4062 114.833 58.4062 115.304C58.4062 115.744 58.3075 116.15 58.1102 116.522C57.9128 116.886 57.6055 117.182 57.1881 117.41C56.7706 117.63 56.2356 117.74 55.5829 117.74H54.0802V120.825H52.7141ZM54.0802 116.624H55.5032C56.042 116.624 56.4291 116.507 56.6644 116.271C56.8997 116.028 57.0173 115.706 57.0173 115.304C57.0173 114.886 56.8997 114.56 56.6644 114.325C56.4291 114.089 56.042 113.972 55.5032 113.972H54.0802V116.624ZM58.5242 120.825L61.4385 112.856H62.964L65.8784 120.825H64.4326L62.1899 114.45L59.9472 120.825H58.5242ZM59.822 118.947L60.1863 117.865H64.1138L64.4781 118.947H59.822ZM67.3161 120.825V112.856H70.1735C70.8034 112.856 71.3233 112.966 71.7331 113.186C72.1505 113.399 72.4579 113.687 72.6552 114.051C72.8602 114.408 72.9626 114.814 72.9626 115.269C72.9626 115.694 72.864 116.089 72.6666 116.453C72.4693 116.818 72.1619 117.11 71.7445 117.33C71.3271 117.55 70.792 117.66 70.1393 117.66H68.6822V120.825H67.3161ZM71.4713 120.825L69.7978 117.307H71.2778L73.0309 120.825H71.4713ZM68.6822 116.647H70.0824C70.5909 116.647 70.9628 116.526 71.1981 116.283C71.4409 116.032 71.5624 115.706 71.5624 115.304C71.5624 114.909 71.4447 114.594 71.2095 114.359C70.9742 114.116 70.5985 113.994 70.0824 113.994H68.6822V116.647ZM76.5727 120.825V113.96H74.2276V112.856H80.2726V113.96H77.9275V120.825H76.5727ZM81.7402 120.825V112.856H83.1063L86.9427 118.616V112.856H88.3088V120.825H86.9427L83.1063 115.076V120.825H81.7402ZM90.253 120.825V112.856H95.3986V113.96H91.6191V116.249H95.0571V117.33H91.6191V119.721H95.3986V120.825H90.253ZM97.176 120.825V112.856H100.033C100.663 112.856 101.183 112.966 101.593 113.186C102.01 113.399 102.318 113.687 102.515 114.051C102.72 114.408 102.823 114.814 102.823 115.269C102.823 115.694 102.724 116.089 102.527 116.453C102.329 116.818 102.022 117.11 101.604 117.33C101.187 117.55 100.652 117.66 99.9992 117.66H98.5421V120.825H97.176ZM101.331 120.825L99.6577 117.307H101.138L102.891 120.825H101.331ZM98.5421 116.647H99.9423C100.451 116.647 100.823 116.526 101.058 116.283C101.301 116.032 101.422 115.706 101.422 115.304C101.422 114.909 101.305 114.594 101.069 114.359C100.834 114.116 100.458 113.994 99.9423 113.994H98.5421V116.647Z" fill="#686868"/>
<rect x="18.3896" y="69.1809" width="118.22" height="17.5141" fill="#00B894"/>
<path d="M57.2884 81.6836L54.5246 74.3277H55.4809L57.8033 80.7483L60.1467 74.3277H61.0819L58.3182 81.6836H57.2884ZM62.5315 81.6836V74.3277H67.0817V75.0527H63.4142V77.6168H66.7664V78.3314H63.4142V80.9585H67.0817V81.6836H62.5315ZM68.8937 81.6836V74.3277H71.2686C71.843 74.3277 72.3124 74.4257 72.6767 74.6219C73.041 74.8111 73.3107 75.0668 73.4859 75.389C73.661 75.7113 73.7486 76.0756 73.7486 76.4819C73.7486 76.8742 73.6575 77.235 73.4754 77.5643C73.3002 77.8935 73.027 78.1562 72.6557 78.3524C72.2844 78.5486 71.808 78.6466 71.2265 78.6466H69.7764V81.6836H68.8937ZM72.7818 81.6836L71.1635 78.3944H72.1513L73.8221 81.6836H72.7818ZM69.7764 77.9531H71.2055C71.766 77.9531 72.1758 77.8165 72.435 77.5433C72.7012 77.27 72.8343 76.9198 72.8343 76.4924C72.8343 76.0581 72.7047 75.7148 72.4455 75.4626C72.1933 75.2034 71.7765 75.0738 71.195 75.0738H69.7764V77.9531ZM75.5534 81.6836V74.3277H76.4361V81.6836H75.5534ZM78.4367 81.6836V74.3277H82.9133V75.0527H79.3194V77.6378H82.3774V78.3524H79.3194V81.6836H78.4367ZM84.4807 81.6836V74.3277H85.3634V81.6836H84.4807ZM87.364 81.6836V74.3277H91.9141V75.0527H88.2467V77.6168H91.5989V78.3314H88.2467V80.9585H91.9141V81.6836H87.364ZM93.7261 81.6836V74.3277H95.8908C96.7525 74.3277 97.4601 74.4783 98.0136 74.7795C98.574 75.0738 98.9873 75.4976 99.2536 76.0511C99.5268 76.5975 99.6634 77.256 99.6634 78.0266C99.6634 78.7833 99.5268 79.4348 99.2536 79.9812C98.9873 80.5277 98.574 80.948 98.0136 81.2422C97.4601 81.5365 96.7525 81.6836 95.8908 81.6836H93.7261ZM94.6088 80.948H95.8698C96.5844 80.948 97.1519 80.8324 97.5722 80.6012C97.9925 80.363 98.2938 80.0268 98.4759 79.5924C98.6581 79.1511 98.7491 78.6291 98.7491 78.0266C98.7491 77.4101 98.6581 76.8812 98.4759 76.4399C98.2938 75.9985 97.9925 75.6587 97.5722 75.4205C97.1519 75.1824 96.5844 75.0633 95.8698 75.0633H94.6088V80.948Z" fill="white"/>
</svg>
