<svg width="142" height="142" viewBox="0 0 142 142" fill="none" xmlns="http://www.w3.org/2000/svg">
<path d="M68.0416 124.25C99.0846 124.25 124.25 99.0843 124.25 68.0413C124.25 36.9983 99.0846 11.833 68.0416 11.833C36.9986 11.833 11.8333 36.9983 11.8333 68.0413C11.8333 99.0843 36.9986 124.25 68.0416 124.25Z" stroke="#B2B2B2" stroke-width="6" stroke-linecap="round" stroke-linejoin="round"/>
<path d="M130.167 130.166L118.333 118.333" stroke="#B2B2B2" stroke-width="6" stroke-linecap="round" stroke-linejoin="round"/>
<path d="M85.8997 64.9811V57.8347C85.8997 55.272 83.9412 52.4384 81.5451 51.5425L71.1484 47.6463C69.4191 47.0004 66.5855 47.0004 64.8562 47.6463L54.4594 51.5633C52.0634 52.4592 50.1049 55.2928 50.1049 57.8347V73.3152C50.1049 75.7738 51.73 79.0032 53.7093 80.4825L62.6685 87.1706C64.1269 88.2957 66.0646 88.8374 68.0023 88.8374" stroke="#00B894" stroke-width="3.75033" stroke-linecap="round" stroke-linejoin="round"/>
<path d="M76.3363 84.6703C80.939 84.6703 84.6703 80.939 84.6703 76.3363C84.6703 71.7335 80.939 68.0022 76.3363 68.0022C71.7335 68.0022 68.0022 71.7335 68.0022 76.3363C68.0022 80.939 71.7335 84.6703 76.3363 84.6703Z" stroke="#00B894" stroke-width="3.75033" stroke-linecap="round" stroke-linejoin="round"/>
<path d="M86.7445 86.7539H86.7633" stroke="#00B894" stroke-width="3.75033" stroke-linecap="round" stroke-linejoin="round"/>
</svg>
