<svg width="66" height="75" viewBox="0 0 66 75" fill="none" xmlns="http://www.w3.org/2000/svg">
<g clip-path="url(#clip0_286_2182)">
<path d="M57.5529 14.6797C57.5014 14.306 57.174 14.0991 56.9034 14.0763C56.6333 14.0538 50.9174 13.6301 50.9174 13.6301C50.9174 13.6301 46.9476 9.68903 46.5119 9.25281C46.076 8.81684 45.2245 8.94945 44.894 9.04673C44.8454 9.06106 44.0267 9.31373 42.6725 9.7328C41.3464 5.91689 39.0061 2.41023 34.8888 2.41023C34.7752 2.41023 34.6582 2.41484 34.5412 2.42149C33.3703 0.872959 31.9198 0.200195 30.6669 0.200195C21.0759 0.200195 16.4938 12.1899 15.0572 18.2826C11.3303 19.4374 8.68281 20.2584 8.34464 20.3647C6.2644 21.0172 6.19861 21.0827 5.92546 23.0429C5.71989 24.5269 0.276855 66.6205 0.276855 66.6205L42.6901 74.5672L65.6711 69.5957C65.6711 69.5957 57.6036 15.0535 57.5529 14.6797ZM40.3283 10.4578L36.7395 11.5686C36.7407 11.3156 36.742 11.0668 36.742 10.7947C36.742 8.42312 36.4128 6.51363 35.8847 4.99991C38.0061 5.26615 39.419 7.67995 40.3283 10.4578ZM33.253 5.47018C33.8428 6.94805 34.2263 9.069 34.2263 11.9311C34.2263 12.0775 34.225 12.2114 34.2238 12.3468C31.8898 13.0697 29.3536 13.8546 26.8118 14.6421C28.239 9.13402 30.9142 6.47369 33.253 5.47018ZM30.4035 2.77272C30.8174 2.77272 31.2345 2.91326 31.6336 3.18795C28.5598 4.63434 25.2651 8.2772 23.8737 15.5519L18.015 17.3664C19.6447 11.8177 23.5146 2.77272 30.4035 2.77272Z" fill="#95BF46"/>
<path d="M56.9036 14.0753C56.6335 14.0528 50.9176 13.6291 50.9176 13.6291C50.9176 13.6291 46.9478 9.68802 46.5121 9.2518C46.3491 9.0895 46.1292 9.0063 45.8993 8.97046L42.6924 74.5657L65.6713 69.5947C65.6713 69.5947 57.6038 15.0525 57.5531 14.6787C57.5016 14.305 57.1742 14.0981 56.9036 14.0753Z" fill="#5E8E3E"/>
<path d="M34.8898 26.7751L32.0562 35.2041C32.0562 35.2041 29.5735 33.879 26.5302 33.879C22.0686 33.879 21.8441 36.6789 21.8441 37.3844C21.8441 41.2341 31.8793 42.7092 31.8793 51.7265C31.8793 58.8209 27.3796 63.3892 21.3124 63.3892C14.0318 63.3892 10.3086 58.8581 10.3086 58.8581L12.258 52.4171C12.258 52.4171 16.0852 55.7029 19.3146 55.7029C21.4248 55.7029 22.2832 54.0414 22.2832 52.8275C22.2832 47.8058 14.0503 47.5818 14.0503 39.3302C14.0503 32.3853 19.0351 25.6646 29.0973 25.6646C32.9744 25.6646 34.8898 26.7751 34.8898 26.7751Z" fill="white"/>
</g>
<defs>
<clipPath id="clip0_286_2182">
<rect width="65.5421" height="74.7515" fill="white" transform="translate(0.262207)"/>
</clipPath>
</defs>
</svg>
