<svg width="45" height="51" viewBox="0 0 45 51" fill="none" xmlns="http://www.w3.org/2000/svg">
<g clip-path="url(#clip0_123_844)">
<path d="M38.507 9.8517C38.4725 9.60134 38.2532 9.46278 38.0719 9.44752C37.891 9.43243 34.0622 9.14863 34.0622 9.14863C34.0622 9.14863 31.4031 6.50869 31.1112 6.21648C30.8192 5.92445 30.2488 6.01328 30.0275 6.07844C29.9949 6.08804 29.4465 6.2573 28.5393 6.53801C27.6511 3.98192 26.0834 1.63298 23.3255 1.63298C23.2493 1.63298 23.171 1.63607 23.0926 1.64052C22.3083 0.603239 21.3366 0.152588 20.4974 0.152588C14.0729 0.152588 11.0036 8.18388 10.0412 12.2651C7.54481 13.0387 5.77136 13.5886 5.54483 13.6598C4.15138 14.0969 4.10731 14.1408 3.92434 15.4538C3.78664 16.4479 0.140625 44.6442 0.140625 44.6442L28.5512 49.9673L43.945 46.6372C43.945 46.6372 38.5409 10.1021 38.507 9.8517ZM26.9691 7.02364L24.5651 7.7677C24.566 7.59827 24.5668 7.43159 24.5668 7.24931C24.5668 5.66071 24.3463 4.38164 23.9925 3.36768C25.4136 3.54602 26.36 5.16291 26.9691 7.02364ZM22.2297 3.68269C22.6248 4.67264 22.8817 6.09336 22.8817 8.01051C22.8817 8.1086 22.8808 8.19828 22.88 8.289C21.3166 8.77326 19.6177 9.29902 17.9151 9.82649C18.8711 6.13692 20.6631 4.35489 22.2297 3.68269ZM20.321 1.8758C20.5983 1.8758 20.8776 1.96994 21.1449 2.15394C19.086 3.1228 16.879 5.56297 15.947 10.4359L12.0225 11.6514C13.1142 7.93455 15.7064 1.8758 20.321 1.8758Z" fill="#95BF46"/>
<path d="M38.0721 9.44696C37.8912 9.43187 34.0624 9.14807 34.0624 9.14807C34.0624 9.14807 31.4033 6.50813 31.1114 6.21592C31.0022 6.1072 30.8549 6.05147 30.7009 6.02747L28.5527 49.9664L43.9452 46.6366C43.9452 46.6366 38.5411 10.1015 38.5072 9.85114C38.4727 9.60078 38.2534 9.46222 38.0721 9.44696Z" fill="#5E8E3E"/>
<path d="M23.3261 17.954L21.428 23.6001C21.428 23.6001 19.7649 22.7126 17.7264 22.7126C14.7378 22.7126 14.5874 24.588 14.5874 25.0606C14.5874 27.6394 21.3095 28.6274 21.3095 34.6677C21.3095 39.4199 18.2954 42.48 14.2313 42.48C9.35436 42.48 6.86035 39.4448 6.86035 39.4448L8.16618 35.1303C8.16618 35.1303 10.7298 37.3313 12.893 37.3313C14.3066 37.3313 14.8815 36.2184 14.8815 35.4052C14.8815 32.0414 9.36671 31.8914 9.36671 26.3641C9.36671 21.712 12.7058 17.2101 19.446 17.2101C22.0431 17.2101 23.3261 17.954 23.3261 17.954Z" fill="white"/>
</g>
<defs>
<clipPath id="clip0_123_844">
<rect width="43.9034" height="50.0723" fill="white" transform="translate(0.130859 0.0186768)"/>
</clipPath>
</defs>
</svg>
