<svg width="26" height="26" viewBox="0 0 26 26" fill="none" xmlns="http://www.w3.org/2000/svg">
<path d="M22.2872 11.4297V7.72034C22.2872 6.39017 21.2706 4.91941 20.0269 4.45439L14.6306 2.4321C13.733 2.09685 12.2622 2.09685 11.3646 2.4321L5.96822 4.46521C4.72456 4.93023 3.70801 6.40098 3.70801 7.72034V15.7554C3.70801 17.0315 4.55153 18.7078 5.5789 19.4756L10.2291 22.947C10.9861 23.531 11.9918 23.8122 12.9976 23.8122" stroke="white" stroke-width="1.94659" stroke-linecap="round" stroke-linejoin="round"/>
<path d="M17.3233 21.6493C19.7124 21.6493 21.6491 19.7126 21.6491 17.3236C21.6491 14.9345 19.7124 12.9978 17.3233 12.9978C14.9343 12.9978 12.9976 14.9345 12.9976 17.3236C12.9976 19.7126 14.9343 21.6493 17.3233 21.6493Z" stroke="white" stroke-width="1.94659" stroke-linecap="round" stroke-linejoin="round"/>
<path d="M22.7257 22.7307H22.7354" stroke="white" stroke-width="1.94659" stroke-linecap="round" stroke-linejoin="round"/>
</svg>
