<svg width="86" height="85" viewBox="0 0 86 85" fill="none" xmlns="http://www.w3.org/2000/svg">
<g clip-path="url(#clip0_286_2187)">
<path d="M6.42676 42.405C6.42676 56.8047 14.7947 69.2485 26.9295 75.1457L9.57637 27.6002C7.49615 32.2584 6.42287 37.3034 6.42676 42.405ZM67.3639 40.5691C67.3639 36.0735 65.7489 32.9598 64.364 30.5366C62.5198 27.54 60.7913 25.0023 60.7913 22.0057C60.7913 18.6615 63.3276 15.5485 66.9003 15.5485C67.0616 15.5485 67.2142 15.5685 67.3716 15.5778C60.8994 9.64805 52.2764 6.02783 42.8056 6.02783C30.0964 6.02783 18.9151 12.5486 12.4104 22.4251C13.2638 22.4507 14.068 22.4683 14.7514 22.4683C18.5562 22.4683 24.4464 22.007 24.4464 22.007C26.4077 21.8913 26.6388 24.7715 24.6799 25.0037C24.6799 25.0037 22.7089 25.2355 20.5159 25.3502L33.7642 64.7549L41.7253 40.8784L36.0574 25.3492C34.0984 25.2345 32.2426 25.0027 32.2426 25.0027C30.2823 24.8876 30.5121 21.8903 32.4724 22.006C32.4724 22.006 38.4803 22.4677 42.0546 22.4677C45.8594 22.4677 51.7499 22.006 51.7499 22.006C53.7122 21.8903 53.943 24.7705 51.9834 25.0027C51.9834 25.0027 50.0085 25.2345 47.8194 25.3492L60.9662 64.4553L64.5948 52.3298C66.1673 47.298 67.3642 43.6841 67.3642 40.5694L67.3639 40.5691ZM43.4438 45.5872L32.5289 77.3038C35.866 78.2867 39.3268 78.7857 42.8056 78.7858C47.0418 78.7858 51.1043 78.0535 54.8862 76.7238C54.7852 76.5647 54.6985 76.3969 54.6271 76.2226L43.4438 45.5872ZM74.7264 24.9518C74.8827 26.1105 74.9715 27.3544 74.9715 28.6924C74.9715 32.3841 74.2821 36.5338 72.2054 41.7225L61.0933 73.8506C71.9084 67.5437 79.1828 55.8266 79.1828 42.406C79.1834 36.0812 77.568 30.1335 74.7264 24.9518ZM42.8056 0C19.423 0 0.398926 19.0227 0.398926 42.405C0.398926 65.7903 19.423 84.8123 42.8056 84.8123C66.1872 84.8123 85.2139 65.7903 85.2139 42.405C85.2136 19.0227 66.1872 0 42.8056 0ZM42.8056 82.8687C20.4956 82.8687 2.34324 64.7167 2.34324 42.405C2.34324 20.095 20.4946 1.94431 42.8056 1.94431C65.1149 1.94431 83.2656 20.095 83.2656 42.405C83.2656 64.7167 65.1149 82.8687 42.8056 82.8687Z" fill="#3A7498"/>
</g>
<defs>
<clipPath id="clip0_286_2187">
<rect width="85.1506" height="84.81" fill="white" transform="translate(0.398926)"/>
</clipPath>
</defs>
</svg>
