<svg width="58" height="57" viewBox="0 0 58 57" fill="none" xmlns="http://www.w3.org/2000/svg">
<g clip-path="url(#clip0_123_849)">
<path d="M4.8395 28.4167C4.8395 38.0624 10.4448 46.3979 18.5733 50.3481L6.94927 18.4997C5.55584 21.62 4.8369 24.9994 4.8395 28.4167ZM45.6583 27.187C45.6583 24.1756 44.5764 22.0899 43.6488 20.4667C42.4134 18.4594 41.2556 16.7595 41.2556 14.7522C41.2556 12.5121 42.9546 10.4269 45.3477 10.4269C45.4558 10.4269 45.558 10.4403 45.6634 10.4465C41.328 6.47447 35.5519 4.04946 29.2079 4.04946C20.6946 4.04946 13.2048 8.41737 8.84762 15.0332C9.41928 15.0503 9.95797 15.0621 10.4158 15.0621C12.9644 15.0621 16.91 14.7531 16.91 14.7531C18.2237 14.6756 18.3786 16.6049 17.0664 16.7604C17.0664 16.7604 15.7461 16.9157 14.2771 16.9926L23.1515 43.3878L28.4843 27.3941L24.6876 16.9919C23.3754 16.915 22.1322 16.7598 22.1322 16.7598C20.8192 16.6827 20.9731 14.6749 22.2862 14.7525C22.2862 14.7525 26.3106 15.0617 28.7048 15.0617C31.2535 15.0617 35.1992 14.7525 35.1992 14.7525C36.5136 14.6749 36.6683 16.6043 35.3556 16.7598C35.3556 16.7598 34.0327 16.915 32.5664 16.9919L41.3728 43.1871L43.8034 35.0648C44.8567 31.6943 45.6585 29.2736 45.6585 27.1872L45.6583 27.187ZM29.6354 30.5483L22.3241 51.7937C24.5594 52.4521 26.8776 52.7864 29.2079 52.7864C32.0455 52.7864 34.7668 52.2959 37.3001 51.4052C37.2324 51.2986 37.1744 51.1862 37.1265 51.0694L29.6354 30.5483ZM50.59 16.7257C50.6948 17.5019 50.7542 18.3351 50.7542 19.2313C50.7542 21.7042 50.2924 24.4839 48.9013 27.9596L41.4579 49.4805C48.7024 45.2559 53.5751 37.4072 53.5751 28.4174C53.5756 24.1807 52.4935 20.1966 50.59 16.7257ZM29.2079 0.0117188C13.545 0.0117188 0.801758 12.7541 0.801758 28.4167C0.801758 44.0814 13.545 56.8233 29.2079 56.8233C44.8701 56.8233 57.6151 44.0814 57.6151 28.4167C57.6149 12.7541 44.8701 0.0117188 29.2079 0.0117188ZM29.2079 55.5213C14.2635 55.5213 2.10416 43.3622 2.10416 28.4167C2.10416 13.4723 14.2628 1.31412 29.2079 1.31412C44.1518 1.31412 56.31 13.4723 56.31 28.4167C56.31 43.3622 44.1518 55.5213 29.2079 55.5213Z" fill="#3A7498"/>
</g>
<defs>
<clipPath id="clip0_123_849">
<rect width="57.0382" height="56.81" fill="white" transform="translate(0.801758 0.0117188)"/>
</clipPath>
</defs>
</svg>
